<svg width="72" height="72" viewBox="0 0 72 72" fill="none" xmlns="http://www.w3.org/2000/svg">
<circle cx="47.9427" cy="32.9605" r="11.9857" fill="url(#paint0_linear_160_587)"/>
<g filter="url(#filter0_bi_160_587)">
<mask id="path-3-inside-1_160_587" fill="white">
<path fill-rule="evenodd" clip-rule="evenodd" d="M26.9675 29.9641H44.946V23.9714C44.946 19.0067 40.9213 14.9821 35.9567 14.9821C30.9921 14.9821 26.9675 19.0067 26.9675 23.9714V29.9641ZM20.9746 29.9641H20.9736C16.009 29.9641 11.9844 33.9888 11.9844 38.9534V53.9355C11.9844 58.9001 16.009 62.9248 20.9736 62.9248H50.9378C55.9025 62.9248 59.9271 58.9001 59.9271 53.9355V38.9534C59.9271 33.9891 55.903 29.9647 50.9388 29.9641V23.9714C50.9388 15.697 44.2311 8.98926 35.9567 8.98926C27.6823 8.98926 20.9746 15.697 20.9746 23.9714V29.9641Z"/>
</mask>
<path fill-rule="evenodd" clip-rule="evenodd" d="M26.9675 29.9641H44.946V23.9714C44.946 19.0067 40.9213 14.9821 35.9567 14.9821C30.9921 14.9821 26.9675 19.0067 26.9675 23.9714V29.9641ZM20.9746 29.9641H20.9736C16.009 29.9641 11.9844 33.9888 11.9844 38.9534V53.9355C11.9844 58.9001 16.009 62.9248 20.9736 62.9248H50.9378C55.9025 62.9248 59.9271 58.9001 59.9271 53.9355V38.9534C59.9271 33.9891 55.903 29.9647 50.9388 29.9641V23.9714C50.9388 15.697 44.2311 8.98926 35.9567 8.98926C27.6823 8.98926 20.9746 15.697 20.9746 23.9714V29.9641Z" fill="#1D1D1D" fill-opacity="0.05"/>
<path fill-rule="evenodd" clip-rule="evenodd" d="M26.9675 29.9641H44.946V23.9714C44.946 19.0067 40.9213 14.9821 35.9567 14.9821C30.9921 14.9821 26.9675 19.0067 26.9675 23.9714V29.9641ZM20.9746 29.9641H20.9736C16.009 29.9641 11.9844 33.9888 11.9844 38.9534V53.9355C11.9844 58.9001 16.009 62.9248 20.9736 62.9248H50.9378C55.9025 62.9248 59.9271 58.9001 59.9271 53.9355V38.9534C59.9271 33.9891 55.903 29.9647 50.9388 29.9641V23.9714C50.9388 15.697 44.2311 8.98926 35.9567 8.98926C27.6823 8.98926 20.9746 15.697 20.9746 23.9714V29.9641Z" fill="url(#paint1_linear_160_587)" fill-opacity="0.2"/>
<path d="M26.9675 29.9641H26.3682V30.5634H26.9675V29.9641ZM44.946 29.9641V30.5634H45.5453V29.9641H44.946ZM20.9746 29.9641V30.5634H21.5739V29.9641H20.9746ZM50.9388 29.9641H50.3395V30.5633L50.9387 30.5634L50.9388 29.9641ZM26.9675 30.5634H44.946V29.3648H26.9675V30.5634ZM45.5453 29.9641V23.9714H44.3467V29.9641H45.5453ZM45.5453 23.9714C45.5453 18.6758 41.2523 14.3828 35.9567 14.3828V15.5814C40.5904 15.5814 44.3467 19.3377 44.3467 23.9714H45.5453ZM35.9567 14.3828C30.6611 14.3828 26.3682 18.6758 26.3682 23.9714H27.5667C27.5667 19.3377 31.3231 15.5814 35.9567 15.5814V14.3828ZM26.3682 23.9714V29.9641H27.5667V23.9714H26.3682ZM20.9736 30.5634H20.9746V29.3648H20.9736V30.5634ZM12.5837 38.9534C12.5837 34.3197 16.34 30.5634 20.9736 30.5634V29.3648C15.678 29.3648 11.3851 33.6578 11.3851 38.9534H12.5837ZM12.5837 53.9355V38.9534H11.3851V53.9355H12.5837ZM20.9736 62.3255C16.34 62.3255 12.5837 58.5691 12.5837 53.9355H11.3851C11.3851 59.2311 15.678 63.524 20.9736 63.524V62.3255ZM50.9378 62.3255H20.9736V63.524H50.9378V62.3255ZM59.3278 53.9355C59.3278 58.5691 55.5715 62.3255 50.9378 62.3255V63.524C56.2334 63.524 60.5264 59.2311 60.5264 53.9355H59.3278ZM59.3278 38.9534V53.9355H60.5264V38.9534H59.3278ZM50.9387 30.5634C55.572 30.5639 59.3278 34.32 59.3278 38.9534H60.5264C60.5264 33.6581 56.234 29.3654 50.9389 29.3648L50.9387 30.5634ZM51.5381 29.9641V23.9714H50.3395V29.9641H51.5381ZM51.5381 23.9714C51.5381 15.366 44.5621 8.38997 35.9567 8.38997V9.58854C43.9001 9.58854 50.3395 16.028 50.3395 23.9714H51.5381ZM35.9567 8.38997C27.3513 8.38997 20.3753 15.366 20.3753 23.9714H21.5739C21.5739 16.028 28.0133 9.58854 35.9567 9.58854V8.38997ZM20.3753 23.9714V29.9641H21.5739V23.9714H20.3753Z" fill="url(#paint2_linear_160_587)" fill-opacity="0.1" mask="url(#path-3-inside-1_160_587)"/>
</g>
<g filter="url(#filter1_i_160_587)">
<path fill-rule="evenodd" clip-rule="evenodd" d="M38.9518 47.1412C40.7433 46.105 41.9486 44.1682 41.9486 41.9499C41.9486 38.6401 39.2655 35.957 35.9557 35.957C32.646 35.957 29.9629 38.6401 29.9629 41.9499C29.9629 44.1679 31.1679 46.1046 32.959 47.1408L32.959 53.9355C32.959 55.5903 34.3005 56.9319 35.9554 56.9319C37.6103 56.9319 38.9518 55.5903 38.9518 53.9355V47.1412Z" fill="white" fill-opacity="0.1"/>
</g>
<defs>
<filter id="filter0_bi_160_587" x="2.99511" y="-3.8147e-06" width="65.9219" height="71.9141" filterUnits="userSpaceOnUse" color-interpolation-filters="sRGB">
<feFlood flood-opacity="0" result="BackgroundImageFix"/>
<feGaussianBlur in="BackgroundImageFix" stdDeviation="4.49463"/>
<feComposite in2="SourceAlpha" operator="in" result="effect1_backgroundBlur_160_587"/>
<feBlend mode="normal" in="SourceGraphic" in2="effect1_backgroundBlur_160_587" result="shape"/>
<feColorMatrix in="SourceAlpha" type="matrix" values="0 0 0 0 0 0 0 0 0 0 0 0 0 0 0 0 0 0 127 0" result="hardAlpha"/>
<feOffset dy="1.49821"/>
<feGaussianBlur stdDeviation="2.99642"/>
<feComposite in2="hardAlpha" operator="arithmetic" k2="-1" k3="1"/>
<feColorMatrix type="matrix" values="0 0 0 0 1 0 0 0 0 1 0 0 0 0 1 0 0 0 0.15 0"/>
<feBlend mode="normal" in2="shape" result="effect2_innerShadow_160_587"/>
</filter>
<filter id="filter1_i_160_587" x="29.9629" y="35.957" width="11.9863" height="22.4731" filterUnits="userSpaceOnUse" color-interpolation-filters="sRGB">
<feFlood flood-opacity="0" result="BackgroundImageFix"/>
<feBlend mode="normal" in="SourceGraphic" in2="BackgroundImageFix" result="shape"/>
<feColorMatrix in="SourceAlpha" type="matrix" values="0 0 0 0 0 0 0 0 0 0 0 0 0 0 0 0 0 0 127 0" result="hardAlpha"/>
<feOffset dy="1.49821"/>
<feGaussianBlur stdDeviation="0.749105"/>
<feComposite in2="hardAlpha" operator="arithmetic" k2="-1" k3="1"/>
<feColorMatrix type="matrix" values="0 0 0 0 1 0 0 0 0 1 0 0 0 0 1 0 0 0 0.1 0"/>
<feBlend mode="normal" in2="shape" result="effect1_innerShadow_160_587"/>
</filter>
<linearGradient id="paint0_linear_160_587" x1="36.9558" y1="25.7691" x2="63.0866" y2="29.3984" gradientUnits="userSpaceOnUse">
<stop stop-color="#38B87F"/>
<stop offset="1" stop-color="#F5BB57"/>
</linearGradient>
<linearGradient id="paint1_linear_160_587" x1="13.982" y1="19.7764" x2="66.452" y2="26.2542" gradientUnits="userSpaceOnUse">
<stop stop-color="#38B87F"/>
<stop offset="1" stop-color="#F5BB57"/>
</linearGradient>
<linearGradient id="paint2_linear_160_587" x1="13.4826" y1="11.4409" x2="59.9271" y2="11.4409" gradientUnits="userSpaceOnUse">
<stop stop-color="#FD84DC"/>
<stop offset="1" stop-color="#7FD6FA"/>
</linearGradient>
</defs>
</svg>
