<svg width="72" height="73" viewBox="0 0 72 73" fill="none" xmlns="http://www.w3.org/2000/svg">
<rect x="5.99219" y="57.8459" width="62.9248" height="8.98926" rx="2.99642" fill="url(#paint0_linear_160_601)"/>
<g filter="url(#filter0_bi_160_601)">
<mask id="path-3-inside-1_160_601" fill="white">
<path fill-rule="evenodd" clip-rule="evenodd" d="M29.9648 14.3979C29.9648 11.9156 31.9772 9.90332 34.4595 9.90332H40.4523C42.9346 9.90332 44.9469 11.9156 44.9469 14.398V59.3443C44.9469 61.8266 42.9346 63.8389 40.4523 63.8389H34.4595C31.9772 63.8389 29.9648 61.8266 29.9648 59.3443V14.3979ZM8.99023 32.3765C8.99023 29.8942 11.0025 27.8818 13.4849 27.8818H19.4777C21.96 27.8818 23.9723 29.8942 23.9723 32.3765V59.3443C23.9723 61.8266 21.96 63.8389 19.4777 63.8389H13.4849C11.0025 63.8389 8.99023 61.8266 8.99023 59.3443V32.3765ZM55.4342 36.8711C52.9518 36.8711 50.9395 38.8834 50.9395 41.3657V59.3443C50.9395 61.8266 52.9518 63.8389 55.4342 63.8389H61.427C63.9093 63.8389 65.9216 61.8266 65.9216 59.3443V41.3657C65.9216 38.8834 63.9093 36.8711 61.427 36.8711H55.4342Z"/>
</mask>
<path fill-rule="evenodd" clip-rule="evenodd" d="M29.9648 14.3979C29.9648 11.9156 31.9772 9.90332 34.4595 9.90332H40.4523C42.9346 9.90332 44.9469 11.9156 44.9469 14.398V59.3443C44.9469 61.8266 42.9346 63.8389 40.4523 63.8389H34.4595C31.9772 63.8389 29.9648 61.8266 29.9648 59.3443V14.3979ZM8.99023 32.3765C8.99023 29.8942 11.0025 27.8818 13.4849 27.8818H19.4777C21.96 27.8818 23.9723 29.8942 23.9723 32.3765V59.3443C23.9723 61.8266 21.96 63.8389 19.4777 63.8389H13.4849C11.0025 63.8389 8.99023 61.8266 8.99023 59.3443V32.3765ZM55.4342 36.8711C52.9518 36.8711 50.9395 38.8834 50.9395 41.3657V59.3443C50.9395 61.8266 52.9518 63.8389 55.4342 63.8389H61.427C63.9093 63.8389 65.9216 61.8266 65.9216 59.3443V41.3657C65.9216 38.8834 63.9093 36.8711 61.427 36.8711H55.4342Z" fill="#1D1D1D" fill-opacity="0.05"/>
<path fill-rule="evenodd" clip-rule="evenodd" d="M29.9648 14.3979C29.9648 11.9156 31.9772 9.90332 34.4595 9.90332H40.4523C42.9346 9.90332 44.9469 11.9156 44.9469 14.398V59.3443C44.9469 61.8266 42.9346 63.8389 40.4523 63.8389H34.4595C31.9772 63.8389 29.9648 61.8266 29.9648 59.3443V14.3979ZM8.99023 32.3765C8.99023 29.8942 11.0025 27.8818 13.4849 27.8818H19.4777C21.96 27.8818 23.9723 29.8942 23.9723 32.3765V59.3443C23.9723 61.8266 21.96 63.8389 19.4777 63.8389H13.4849C11.0025 63.8389 8.99023 61.8266 8.99023 59.3443V32.3765ZM55.4342 36.8711C52.9518 36.8711 50.9395 38.8834 50.9395 41.3657V59.3443C50.9395 61.8266 52.9518 63.8389 55.4342 63.8389H61.427C63.9093 63.8389 65.9216 61.8266 65.9216 59.3443V41.3657C65.9216 38.8834 63.9093 36.8711 61.427 36.8711H55.4342Z" fill="url(#paint1_linear_160_601)" fill-opacity="0.2"/>
<path d="M34.4595 9.30404C31.6462 9.30404 29.3656 11.5847 29.3656 14.3979H30.5641C30.5641 12.2466 32.3081 10.5026 34.4595 10.5026V9.30404ZM40.4523 9.30404H34.4595V10.5026H40.4523V9.30404ZM45.5462 14.398C45.5462 11.5847 43.2656 9.30404 40.4523 9.30404V10.5026C42.6037 10.5026 44.3477 12.2466 44.3477 14.398H45.5462ZM45.5462 59.3443V14.398H44.3477V59.3443H45.5462ZM40.4523 64.4382C43.2656 64.4382 45.5462 62.1575 45.5462 59.3443H44.3477C44.3477 61.4956 42.6037 63.2396 40.4523 63.2396V64.4382ZM34.4595 64.4382H40.4523V63.2396H34.4595V64.4382ZM29.3656 59.3443C29.3656 62.1575 31.6462 64.4382 34.4595 64.4382V63.2396C32.3081 63.2396 30.5641 61.4956 30.5641 59.3443H29.3656ZM29.3656 14.3979V59.3443H30.5641V14.3979H29.3656ZM13.4849 27.2826C10.6716 27.2826 8.39095 29.5632 8.39095 32.3765H9.58952C9.58952 30.2251 11.3335 28.4811 13.4849 28.4811V27.2826ZM19.4777 27.2826H13.4849V28.4811H19.4777V27.2826ZM24.5716 32.3765C24.5716 29.5632 22.291 27.2826 19.4777 27.2826V28.4811C21.629 28.4811 23.3731 30.2251 23.3731 32.3765H24.5716ZM24.5716 59.3443V32.3765H23.3731V59.3443H24.5716ZM19.4777 64.4382C22.291 64.4382 24.5716 62.1575 24.5716 59.3443H23.3731C23.3731 61.4956 21.629 63.2396 19.4777 63.2396V64.4382ZM13.4849 64.4382H19.4777V63.2396H13.4849V64.4382ZM8.39095 59.3443C8.39095 62.1575 10.6716 64.4382 13.4849 64.4382V63.2396C11.3335 63.2396 9.58952 61.4956 9.58952 59.3443H8.39095ZM8.39095 32.3765V59.3443H9.58952V32.3765H8.39095ZM51.5388 41.3657C51.5388 39.2144 53.2828 37.4704 55.4342 37.4704V36.2718C52.6209 36.2718 50.3402 38.5524 50.3402 41.3657H51.5388ZM51.5388 59.3443V41.3657H50.3402V59.3443H51.5388ZM55.4342 63.2396C53.2828 63.2396 51.5388 61.4956 51.5388 59.3443H50.3402C50.3402 62.1575 52.6209 64.4382 55.4342 64.4382V63.2396ZM61.427 63.2396H55.4342V64.4382H61.427V63.2396ZM65.3223 59.3443C65.3223 61.4956 63.5783 63.2396 61.427 63.2396V64.4382C64.2403 64.4382 66.5209 62.1575 66.5209 59.3443H65.3223ZM65.3223 41.3657V59.3443H66.5209V41.3657H65.3223ZM61.427 37.4704C63.5784 37.4704 65.3223 39.2144 65.3223 41.3657H66.5209C66.5209 38.5524 64.2403 36.2718 61.427 36.2718V37.4704ZM55.4342 37.4704H61.427V36.2718H55.4342V37.4704Z" fill="url(#paint2_linear_160_601)" fill-opacity="0.1" mask="url(#path-3-inside-1_160_601)"/>
</g>
<defs>
<filter id="filter0_bi_160_601" x="0.000972748" y="0.914059" width="74.9102" height="71.9141" filterUnits="userSpaceOnUse" color-interpolation-filters="sRGB">
<feFlood flood-opacity="0" result="BackgroundImageFix"/>
<feGaussianBlur in="BackgroundImageFix" stdDeviation="4.49463"/>
<feComposite in2="SourceAlpha" operator="in" result="effect1_backgroundBlur_160_601"/>
<feBlend mode="normal" in="SourceGraphic" in2="effect1_backgroundBlur_160_601" result="shape"/>
<feColorMatrix in="SourceAlpha" type="matrix" values="0 0 0 0 0 0 0 0 0 0 0 0 0 0 0 0 0 0 127 0" result="hardAlpha"/>
<feOffset dy="1.49821"/>
<feGaussianBlur stdDeviation="2.99642"/>
<feComposite in2="hardAlpha" operator="arithmetic" k2="-1" k3="1"/>
<feColorMatrix type="matrix" values="0 0 0 0 1 0 0 0 0 1 0 0 0 0 1 0 0 0 0.15 0"/>
<feBlend mode="normal" in2="shape" result="effect2_innerShadow_160_601"/>
</filter>
<linearGradient id="paint0_linear_160_601" x1="8.61405" y1="59.6438" x2="44.5568" y2="94.5882" gradientUnits="userSpaceOnUse">
<stop stop-color="#38B87F"/>
<stop offset="1" stop-color="#F5BB57"/>
</linearGradient>
<linearGradient id="paint1_linear_160_601" x1="11.3624" y1="20.6904" x2="73.2885" y2="29.769" gradientUnits="userSpaceOnUse">
<stop stop-color="#38B87F"/>
<stop offset="1" stop-color="#F5BB57"/>
</linearGradient>
<linearGradient id="paint2_linear_160_601" x1="10.7693" y1="12.3549" x2="65.9216" y2="12.3549" gradientUnits="userSpaceOnUse">
<stop stop-color="#FD84DC"/>
<stop offset="1" stop-color="#7FD6FA"/>
</linearGradient>
</defs>
</svg>
