<svg width="501" height="73" viewBox="0 0 501 73" fill="none" xmlns="http://www.w3.org/2000/svg">
<path d="M250.5 0.5C319.657 0.5 382.257 4.58479 427.559 11.1855C450.213 14.4865 468.519 18.4139 481.151 22.7656C487.471 24.9426 492.341 27.2161 495.621 29.5518C498.917 31.8989 500.5 34.2285 500.5 36.5C500.5 38.7715 498.917 41.1011 495.621 43.4482C492.341 45.7839 487.471 48.0574 481.151 50.2344C468.519 54.5861 450.213 58.5135 427.559 61.8145C382.257 68.4152 319.657 72.5 250.5 72.5C181.343 72.5 118.743 68.4152 73.4414 61.8145C50.7873 58.5135 32.4809 54.5861 19.8486 50.2344C13.5292 48.0574 8.65899 45.7839 5.37891 43.4482C2.08285 41.1011 0.5 38.7715 0.5 36.5C0.5 34.2285 2.08285 31.8989 5.37891 29.5518C8.65899 27.2161 13.5292 24.9426 19.8486 22.7656C32.4809 18.4139 50.7873 14.4865 73.4414 11.1855C118.743 4.58479 181.343 0.5 250.5 0.5Z" stroke="#8C8989"/>
</svg>
