<svg width="92" height="92" viewBox="0 0 92 92" fill="none" xmlns="http://www.w3.org/2000/svg">
<circle cx="46" cy="46" r="45.5" stroke="#173E48"/>
<g clip-path="url(#clip0_98_327)">
<path fill-rule="evenodd" clip-rule="evenodd" d="M18.3555 46C18.3555 32.7461 30.8483 22 46.2607 22C61.6732 22 74.1649 32.7461 74.1649 46C74.1649 59.2539 61.6721 70 46.2607 70C30.8493 70 18.3555 59.2555 18.3555 46Z" fill="#09252C"/>
<path fill-rule="evenodd" clip-rule="evenodd" d="M42.8725 29.7078L49.3557 27.5657L49.3877 62.6126L42.8496 64.8031L42.8725 29.7078Z" fill="#36626D"/>
<path fill-rule="evenodd" clip-rule="evenodd" d="M67.2472 48.4161C66.6389 53.4294 63.8267 58.4944 57.6862 58.5039C54.1013 58.5103 51.3009 56.0558 49.3616 53.0526V49.5742C51.7884 50.7791 54.0566 52.0723 56.8086 52.1117C60.1987 52.1617 63.2642 50.8584 64.5319 48.4156H67.2477L67.2472 48.4161ZM46.7203 51.5641C43.9034 54.9595 41.1812 58.4278 36.0806 58.4278C28.8762 58.4278 25.459 51.4624 25.459 45.6391C25.459 40.0436 28.1296 33.4199 35.1482 33.4199C38.1924 33.4199 41.1226 35.2815 42.8693 37.2506L42.864 42.0005C41.4047 41.0181 38.1359 40.0542 36.0018 40.0196C31.5511 39.9451 27.6272 41.8744 27.6953 46.2677C27.7416 49.2921 30.7384 51.348 33.7198 51.348C38.286 51.348 41.0524 47.1766 43.3643 44.0106C44.2912 42.802 45.2075 41.5854 46.1131 40.3608C48.6809 36.7727 51.6522 33.497 56.7528 33.497C62.7613 33.497 66.1343 38.34 67.088 43.3257H64.3738C63.2828 41.7088 61.1844 40.7195 59.1173 40.7195C54.3967 40.7195 51.5761 45.0622 49.2152 48.2597L46.7139 51.5636" fill="#36626D"/>
</g>
<defs>
<clipPath id="clip0_98_327">
<rect width="56.0462" height="48" fill="white" transform="translate(18 22)"/>
</clipPath>
</defs>
</svg>
