<svg width="1350" height="236" viewBox="0 0 1350 236" fill="none" xmlns="http://www.w3.org/2000/svg">
<rect x="464" y="140" width="16" height="65" rx="4" fill="#6FD2A6"/>
<line x1="472" y1="236" x2="472" y2="116" stroke="#6FD2A6" stroke-width="2"/>
<rect x="174" y="45" width="16" height="77" rx="4" fill="#6FD2A6"/>
<line x1="182" y1="155" x2="182" y2="35" stroke="#6FD2A6" stroke-width="2"/>
<rect x="812" y="45" width="16" height="77" rx="4" fill="#6FD2A6"/>
<line x1="820" y1="155" x2="820" y2="35" stroke="#6FD2A6" stroke-width="2"/>
<rect x="1102" y="10" width="16" height="77" rx="4" fill="#6FD2A6"/>
<line x1="1110" y1="120" x2="1110" y2="-4.37114e-08" stroke="#6FD2A6" stroke-width="2"/>
<rect x="638" y="128" width="16" height="55" rx="4" fill="#6FD2A6"/>
<line x1="646" y1="199" x2="646" y2="118" stroke="#6FD2A6" stroke-width="2"/>
<rect x="1044" y="40" width="16" height="55" rx="4" fill="#6FD2A6"/>
<line x1="1052" y1="111" x2="1052" y2="30" stroke="#6FD2A6" stroke-width="2"/>
<rect y="127" width="16" height="65" rx="4" fill="#6FD2A6"/>
<line x1="8" y1="208" x2="8" y2="111" stroke="#6FD2A6" stroke-width="2"/>
<rect x="348" y="168" width="16" height="40" rx="4" fill="#6FD2A6"/>
<line x1="356" y1="224" x2="356" y2="149" stroke="#6FD2A6" stroke-width="2"/>
<g opacity="0.2">
<rect x="58" y="94" width="16" height="65" rx="4" fill="#6FD2A6"/>
<line x1="66" y1="168" x2="66" y2="84" stroke="#6FD2A6" stroke-width="2"/>
</g>
<g opacity="0.2">
<rect x="406" y="118" width="16" height="65" rx="4" fill="#6FD2A6"/>
<line x1="414" y1="192" x2="414" y2="108" stroke="#6FD2A6" stroke-width="2"/>
</g>
<g opacity="0.2">
<rect x="580" y="109" width="16" height="65" rx="4" fill="#6FD2A6"/>
<line x1="588" y1="183" x2="588" y2="99" stroke="#6FD2A6" stroke-width="2"/>
</g>
<g opacity="0.2">
<rect x="116" y="159" width="16" height="40" rx="4" fill="#6FD2A6"/>
<line x1="124" y1="221" x2="124" y2="111" stroke="#6FD2A6" stroke-width="2"/>
</g>
<g opacity="0.2">
<rect x="232" y="70" width="16" height="65" rx="4" fill="#6FD2A6"/>
<line x1="240" y1="145" x2="240" y2="61" stroke="#6FD2A6" stroke-width="2"/>
</g>
<g opacity="0.2">
<rect x="290" y="83" width="16" height="52" rx="4" fill="#6FD2A6"/>
<line x1="298" y1="149" x2="298" y2="70" stroke="#6FD2A6" stroke-width="2"/>
</g>
<g opacity="0.2">
<rect x="928" y="70" width="16" height="65" rx="4" fill="#6FD2A6"/>
<line x1="936" y1="145" x2="936" y2="61" stroke="#6FD2A6" stroke-width="2"/>
</g>
<g opacity="0.2">
<rect x="1334" y="70" width="16" height="65" rx="4" fill="#6FD2A6"/>
<line x1="1342" y1="145" x2="1342" y2="61" stroke="#6FD2A6" stroke-width="2"/>
</g>
<g opacity="0.2">
<rect x="1160" y="41" width="16" height="65" rx="4" fill="#6FD2A6"/>
<line x1="1168" y1="116" x2="1168" y2="32" stroke="#6FD2A6" stroke-width="2"/>
</g>
<g opacity="0.2">
<rect x="986" y="83" width="16" height="52" rx="4" fill="#6FD2A6"/>
<line x1="994" y1="149" x2="994" y2="70" stroke="#6FD2A6" stroke-width="2"/>
</g>
<g opacity="0.2">
<rect x="754" y="83" width="16" height="52" rx="4" fill="#6FD2A6"/>
<line x1="762" y1="149" x2="762" y2="70" stroke="#6FD2A6" stroke-width="2"/>
</g>
<g opacity="0.2">
<rect x="522" y="129" width="16" height="52" rx="4" fill="#6FD2A6"/>
<line x1="530" y1="195" x2="530" y2="116" stroke="#6FD2A6" stroke-width="2"/>
</g>
<g opacity="0.2">
<rect x="870" y="116" width="16" height="52" rx="4" fill="#6FD2A6"/>
<line x1="878" y1="182" x2="878" y2="103" stroke="#6FD2A6" stroke-width="2"/>
</g>
<g opacity="0.2">
<rect x="696" y="136" width="16" height="52" rx="4" fill="#6FD2A6"/>
<line x1="704" y1="202" x2="704" y2="123" stroke="#6FD2A6" stroke-width="2"/>
</g>
<g opacity="0.2">
<rect x="1218" y="57" width="16" height="65" rx="4" fill="#6FD2A6"/>
<line x1="1226" y1="131" x2="1226" y2="47" stroke="#6FD2A6" stroke-width="2"/>
</g>
<g opacity="0.2">
<rect x="1276" y="122" width="16" height="40" rx="4" fill="#6FD2A6"/>
<line x1="1284" y1="184" x2="1284" y2="74" stroke="#6FD2A6" stroke-width="2"/>
</g>
</svg>
