<svg width="1308" height="236" viewBox="0 0 1308 236" fill="none" xmlns="http://www.w3.org/2000/svg">
<g clip-path="url(#clip0_368_74)">
<path d="M455 140H447C444.791 140 443 141.791 443 144V201C443 203.209 444.791 205 447 205H455C457.209 205 459 203.209 459 201V144C459 141.791 457.209 140 455 140Z" fill="#6FD2A6"/>
<path d="M451 236V116" stroke="#6FD2A6" stroke-width="2"/>
<path d="M165 45H157C154.791 45 153 46.7909 153 49V118C153 120.209 154.791 122 157 122H165C167.209 122 169 120.209 169 118V49C169 46.7909 167.209 45 165 45Z" fill="#6FD2A6"/>
<path d="M161 155V35" stroke="#6FD2A6" stroke-width="2"/>
<path d="M803 45H795C792.791 45 791 46.7909 791 49V118C791 120.209 792.791 122 795 122H803C805.209 122 807 120.209 807 118V49C807 46.7909 805.209 45 803 45Z" fill="#6FD2A6"/>
<path d="M799 155V35" stroke="#6FD2A6" stroke-width="2"/>
<path d="M1093 10H1085C1082.79 10 1081 11.7909 1081 14V83C1081 85.2091 1082.79 87 1085 87H1093C1095.21 87 1097 85.2091 1097 83V14C1097 11.7909 1095.21 10 1093 10Z" fill="#6FD2A6"/>
<path d="M1089 120V0" stroke="#6FD2A6" stroke-width="2"/>
<path d="M629 128H621C618.791 128 617 129.791 617 132V179C617 181.209 618.791 183 621 183H629C631.209 183 633 181.209 633 179V132C633 129.791 631.209 128 629 128Z" fill="#6FD2A6"/>
<path d="M625 199V118" stroke="#6FD2A6" stroke-width="2"/>
<path d="M1035 40H1027C1024.79 40 1023 41.7909 1023 44V91C1023 93.2091 1024.79 95 1027 95H1035C1037.21 95 1039 93.2091 1039 91V44C1039 41.7909 1037.21 40 1035 40Z" fill="#6FD2A6"/>
<path d="M1031 111V30" stroke="#6FD2A6" stroke-width="2"/>
<path d="M339 168H331C328.791 168 327 169.791 327 172V204C327 206.209 328.791 208 331 208H339C341.209 208 343 206.209 343 204V172C343 169.791 341.209 168 339 168Z" fill="#6FD2A6"/>
<path d="M335 224V149" stroke="#6FD2A6" stroke-width="2"/>
<g opacity="0.2">
<path d="M49 94H41C38.7909 94 37 95.7909 37 98V155C37 157.209 38.7909 159 41 159H49C51.2091 159 53 157.209 53 155V98C53 95.7909 51.2091 94 49 94Z" fill="#6FD2A6"/>
<path d="M45 168V84" stroke="#6FD2A6" stroke-width="2"/>
</g>
<g opacity="0.2">
<path d="M397 118H389C386.791 118 385 119.791 385 122V179C385 181.209 386.791 183 389 183H397C399.209 183 401 181.209 401 179V122C401 119.791 399.209 118 397 118Z" fill="#6FD2A6"/>
<path d="M393 192V108" stroke="#6FD2A6" stroke-width="2"/>
</g>
<g opacity="0.2">
<path d="M571 109H563C560.791 109 559 110.791 559 113V170C559 172.209 560.791 174 563 174H571C573.209 174 575 172.209 575 170V113C575 110.791 573.209 109 571 109Z" fill="#6FD2A6"/>
<path d="M567 183V99" stroke="#6FD2A6" stroke-width="2"/>
</g>
<g opacity="0.2">
<path d="M107 159H99C96.7909 159 95 160.791 95 163V195C95 197.209 96.7909 199 99 199H107C109.209 199 111 197.209 111 195V163C111 160.791 109.209 159 107 159Z" fill="#6FD2A6"/>
<path d="M103 221V111" stroke="#6FD2A6" stroke-width="2"/>
</g>
<g opacity="0.2">
<path d="M223 70H215C212.791 70 211 71.7909 211 74V131C211 133.209 212.791 135 215 135H223C225.209 135 227 133.209 227 131V74C227 71.7909 225.209 70 223 70Z" fill="#6FD2A6"/>
<path d="M219 145V61" stroke="#6FD2A6" stroke-width="2"/>
</g>
<g opacity="0.2">
<path d="M281 83H273C270.791 83 269 84.7909 269 87V131C269 133.209 270.791 135 273 135H281C283.209 135 285 133.209 285 131V87C285 84.7909 283.209 83 281 83Z" fill="#6FD2A6"/>
<path d="M277 149V70" stroke="#6FD2A6" stroke-width="2"/>
</g>
<g opacity="0.2">
<path d="M919 70H911C908.791 70 907 71.7909 907 74V131C907 133.209 908.791 135 911 135H919C921.209 135 923 133.209 923 131V74C923 71.7909 921.209 70 919 70Z" fill="#6FD2A6"/>
<path d="M915 145V61" stroke="#6FD2A6" stroke-width="2"/>
</g>
<g opacity="0.2">
<path d="M1151 41H1143C1140.79 41 1139 42.7909 1139 45V102C1139 104.209 1140.79 106 1143 106H1151C1153.21 106 1155 104.209 1155 102V45C1155 42.7909 1153.21 41 1151 41Z" fill="#6FD2A6"/>
<path d="M1147 116V32" stroke="#6FD2A6" stroke-width="2"/>
</g>
<g opacity="0.2">
<path d="M977 83H969C966.791 83 965 84.7909 965 87V131C965 133.209 966.791 135 969 135H977C979.209 135 981 133.209 981 131V87C981 84.7909 979.209 83 977 83Z" fill="#6FD2A6"/>
<path d="M973 149V70" stroke="#6FD2A6" stroke-width="2"/>
</g>
<g opacity="0.2">
<path d="M745 83H737C734.791 83 733 84.7909 733 87V131C733 133.209 734.791 135 737 135H745C747.209 135 749 133.209 749 131V87C749 84.7909 747.209 83 745 83Z" fill="#6FD2A6"/>
<path d="M741 149V70" stroke="#6FD2A6" stroke-width="2"/>
</g>
<g opacity="0.2">
<path d="M513 129H505C502.791 129 501 130.791 501 133V177C501 179.209 502.791 181 505 181H513C515.209 181 517 179.209 517 177V133C517 130.791 515.209 129 513 129Z" fill="#6FD2A6"/>
<path d="M509 195V116" stroke="#6FD2A6" stroke-width="2"/>
</g>
<g opacity="0.2">
<path d="M861 116H853C850.791 116 849 117.791 849 120V164C849 166.209 850.791 168 853 168H861C863.209 168 865 166.209 865 164V120C865 117.791 863.209 116 861 116Z" fill="#6FD2A6"/>
<path d="M857 182V103" stroke="#6FD2A6" stroke-width="2"/>
</g>
<g opacity="0.2">
<path d="M687 136H679C676.791 136 675 137.791 675 140V184C675 186.209 676.791 188 679 188H687C689.209 188 691 186.209 691 184V140C691 137.791 689.209 136 687 136Z" fill="#6FD2A6"/>
<path d="M683 202V123" stroke="#6FD2A6" stroke-width="2"/>
</g>
<g opacity="0.2">
<path d="M1209 57H1201C1198.79 57 1197 58.7909 1197 61V118C1197 120.209 1198.79 122 1201 122H1209C1211.21 122 1213 120.209 1213 118V61C1213 58.7909 1211.21 57 1209 57Z" fill="#6FD2A6"/>
<path d="M1205 131V47" stroke="#6FD2A6" stroke-width="2"/>
</g>
<g opacity="0.2">
<path d="M1267 122H1259C1256.79 122 1255 123.791 1255 126V158C1255 160.209 1256.79 162 1259 162H1267C1269.21 162 1271 160.209 1271 158V126C1271 123.791 1269.21 122 1267 122Z" fill="#6FD2A6"/>
<path d="M1263 184V74" stroke="#6FD2A6" stroke-width="2"/>
</g>
</g>
<defs>
<clipPath id="clip0_368_74">
<rect width="1350" height="236" fill="white" transform="translate(-21)"/>
</clipPath>
</defs>
</svg>
