<svg width="183" height="36" viewBox="0 0 183 36" fill="none" xmlns="http://www.w3.org/2000/svg">
<path d="M8.27478 30.4947L0.558136 22.778C0.0531401 22.273 -0.138017 21.5198 0.104496 20.8484C0.36698 20.1218 1.04887 19.6463 1.81444 19.6463H13.8231C15.1574 19.6463 16.2387 20.7276 16.2387 22.0619V34.3948C16.2387 35.1309 15.6424 35.7272 14.9063 35.7272C14.1702 35.7272 13.5739 35.1309 13.5739 34.3948V22.3101H3.8563L8.07126 26.5251L8.16256 24.876C8.20345 24.1418 8.83113 23.5788 9.56628 23.6197C10.3005 23.6606 10.8635 24.2882 10.8226 25.0234L10.5668 29.6482C10.5344 30.2379 10.116 30.7438 9.52443 30.876C9.07269 30.9768 8.60098 30.8228 8.27288 30.4947H8.27478Z" fill="white"/>
<path d="M5.506 8.27478L13.2226 0.558136C13.7276 0.0531401 14.4809 -0.138017 15.1523 0.104496C15.8789 0.36698 16.3544 1.04887 16.3544 1.81444V13.8231C16.3544 15.1574 15.2731 16.2387 13.9388 16.2387H1.60583C0.869732 16.2387 0.273438 15.6424 0.273438 14.9063C0.273438 14.1702 0.869732 13.5739 1.60583 13.5739H13.6905V3.8563L9.47559 8.07126L11.1247 8.16256C11.8589 8.20345 12.4219 8.83113 12.381 9.56628C12.3401 10.3005 11.7124 10.8635 10.9773 10.8226L6.35241 10.5668C5.76277 10.5344 5.25683 10.116 5.12463 9.52443C5.02383 9.07269 5.17789 8.60098 5.506 8.27288V8.27478Z" fill="white"/>
<path d="M27.7256 5.50539L35.4423 13.222C35.9473 13.727 36.1384 14.4802 35.8959 15.1517C35.6334 15.8783 34.9515 16.3538 34.186 16.3538H22.1773C20.843 16.3538 19.7617 15.2724 19.7617 13.9382V1.60522C19.7617 0.869122 20.358 0.272827 21.0941 0.272827C21.8302 0.272827 22.4265 0.869122 22.4265 1.60522V13.6899H32.1441L27.9292 9.47498L27.8379 11.1241C27.797 11.8583 27.1693 12.4213 26.4341 12.3804C25.6999 12.3395 25.1369 11.7118 25.1778 10.9767L25.4337 6.3518C25.466 5.76216 25.8844 5.25622 26.476 5.12402C26.9277 5.02321 27.3994 5.17728 27.7275 5.50539H27.7256Z" fill="white"/>
<path d="M30.4949 27.7252L22.7782 35.4419C22.2732 35.9469 21.52 36.138 20.8486 35.8955C20.122 35.633 19.6465 34.9512 19.6465 34.1856V22.1769C19.6465 20.8426 20.7278 19.7613 22.0621 19.7613H34.395C35.1311 19.7613 35.7274 20.3576 35.7274 21.0937C35.7274 21.8298 35.1311 22.4261 34.395 22.4261H22.3103V32.1437L26.5253 27.9288L24.8762 27.8375C24.142 27.7966 23.579 27.1689 23.6199 26.4337C23.6608 25.6995 24.2885 25.1365 25.0236 25.1774L29.6485 25.4333C30.2381 25.4656 30.744 25.884 30.8762 26.4756C30.977 26.9273 30.823 27.399 30.4949 27.7271V27.7252Z" fill="white"/>
<path d="M42 17.9881C42 12.5282 45.9354 8.54437 51.2478 8.54437C55.2079 8.54437 58.1342 10.7336 59.0938 13.4384L55.7243 15.0618C55.0852 13.291 53.4618 11.9871 51.2478 11.9871C48.001 11.9871 45.8127 14.4217 45.8127 17.9881C45.8127 21.5544 48.0999 24.0138 51.3467 24.0138C53.8555 24.0138 56.1427 22.5131 56.1427 19.9558V19.9063H51.2488V16.709H59.9554V18.6519C59.9554 24.6529 55.5531 27.4565 51.3477 27.4565C46.0847 27.4565 42.0019 23.4232 42.0019 17.9881H42Z" fill="white"/>
<path d="M62.043 13.7332H65.4857V15.7504C66.1742 14.0784 67.4781 13.5858 69.1253 13.5858H69.9127V16.7832H68.7572C66.9617 16.7832 65.732 17.9387 65.732 19.9311V27.1617H62.043V13.7332Z" fill="white"/>
<path d="M70.9941 20.4475C70.9941 16.3895 74.2162 13.4384 78.2001 13.4384C82.1839 13.4384 85.3813 16.3895 85.3813 20.4475C85.3813 24.5056 82.1592 27.4566 78.2001 27.4566C74.241 27.4566 70.9941 24.5056 70.9941 20.4475ZM81.5696 20.4475C81.5696 18.3077 80.1925 16.7585 78.2001 16.7585C76.2077 16.7585 74.8059 18.3077 74.8059 20.4475C74.8059 22.5873 76.183 24.1366 78.2001 24.1366C80.2172 24.1366 81.5696 22.6121 81.5696 20.4475Z" fill="white"/>
<path d="M86.2177 13.7332H90.0295L92.6362 21.5298L95.5626 13.7332H98.7599L101.662 21.5298L104.269 13.7332H108.106L103.457 27.1618H100.26L97.1612 18.554L94.0381 27.1618H90.8407L86.2168 13.7332H86.2177Z" fill="white"/>
<path d="M111.081 22.3163V16.9307H108.818V13.7333H108.941C110.318 13.7333 111.081 13.0447 111.081 11.6677V10.6843H114.77V13.7342H117.918V16.9316H114.77V22.0719C114.77 23.449 115.508 24.1128 117.057 24.1128C117.279 24.1128 117.574 24.0881 117.918 24.0386V27.1618C117.426 27.236 116.762 27.3092 116.196 27.3092C112.95 27.3092 111.081 25.4642 111.081 22.3163Z" fill="white"/>
<path d="M120.084 8.54349H123.773V14.9867C124.511 13.9292 125.79 13.4375 127.29 13.4375C130.315 13.4375 132.381 15.4784 132.381 18.5283V27.1608H128.692V19.3148C128.692 17.7656 127.684 16.7566 126.232 16.7566C124.781 16.7566 123.773 17.7647 123.773 19.3148V27.1608H120.084V8.54349Z" fill="white"/>
<path d="M136.635 16.0947H134.102V13.9054H136.635V12.9705C136.635 10.1174 138.701 8.54349 141.259 8.54349C141.603 8.54349 142.12 8.59294 142.415 8.66617V10.7071C142.168 10.6576 141.726 10.6329 141.529 10.6329C140.005 10.6329 138.947 11.272 138.947 12.9696V13.9044H142.095V16.0937H138.947V27.1608H136.635V16.0937V16.0947Z" fill="white"/>
<path d="M144.752 8.83929H147.039V11.7903H144.752V8.83929ZM144.752 13.9054H147.039V27.1618H144.752V13.9054Z" fill="white"/>
<path d="M150.578 13.9054H152.816V15.5288C153.603 14.2991 154.956 13.6105 156.604 13.6105C159.432 13.6105 161.572 15.7256 161.572 18.5787V27.1617H159.26V19.3158C159.26 17.1265 157.956 15.8236 156.087 15.8236C154.219 15.8236 152.865 17.1512 152.865 19.3158V27.1617H150.578V13.9054Z" fill="white"/>
<path d="M164.844 8.83929H167.131V11.7903H164.844V8.83929ZM164.844 13.9054H167.131V27.1618H164.844V13.9054Z" fill="white"/>
<path d="M172.025 23.079V16.0946H169.615V13.9054H170.107C171.287 13.9054 172.025 13.1426 172.025 11.9377V10.8554H174.312V13.9054H177.288V16.0946H174.312V23.0057C174.312 24.3581 174.903 25.2188 176.525 25.2188C176.772 25.2188 177.14 25.1941 177.436 25.1446V27.1617C177.017 27.2597 176.427 27.3092 176.058 27.3092C173.476 27.3092 172.025 25.7847 172.025 23.079Z" fill="white"/>
<path d="M180.41 8.83929H182.697V11.7903H180.41V8.83929ZM180.41 13.9054H182.697V27.1618H180.41V13.9054Z" fill="white"/>
</svg>
