<svg width="1282" height="127" viewBox="0 0 1282 127" fill="none" xmlns="http://www.w3.org/2000/svg">
<path d="M32.1034 127C20.7715 127 12.5837 124.202 7.53989 118.606C2.51084 112.995 0 103.939 0 91.4506V79.2572H24.5341V94.7788C24.5341 100.986 26.5148 104.086 30.4835 104.086C32.7219 104.086 34.2682 103.438 35.1371 102.142C35.9985 100.831 36.433 98.6223 36.433 95.5151C36.433 91.4506 35.947 88.093 34.9898 85.4423C34.0252 82.7768 32.7882 80.5457 31.2788 78.7565C29.784 76.9746 27.1038 74.1913 23.2382 70.4214L12.4879 59.6711C4.16019 51.5422 0 42.5444 0 32.663C0 22.0232 2.44457 13.9238 7.33372 8.36456C12.2229 2.79064 19.3578 0 28.7458 0C39.9747 0 48.0521 2.98945 52.9854 8.95362C57.9334 14.9031 60.4075 24.2101 60.4075 36.8748H34.9898L34.8425 28.304C34.8425 26.6768 34.3786 25.3809 33.4583 24.4163C32.5526 23.437 31.2788 22.9436 29.6294 22.9436C27.6855 22.9436 26.2276 23.4738 25.2704 24.5341C24.3058 25.5944 23.8272 27.0523 23.8272 28.8931C23.8272 32.9576 26.1393 37.1693 30.7781 41.5283L45.2982 55.4594C48.6927 58.7434 51.498 61.8654 53.7217 64.8254C55.938 67.7706 57.7273 71.2608 59.0821 75.2811C60.4369 79.2866 61.1143 84.0506 61.1143 89.5656C61.1143 101.862 58.8612 111.177 54.3697 117.516C49.8708 123.841 42.4487 127 32.1034 127Z" fill="#FDFDFD"/>
<path d="M88.2581 127C80.0261 127 74.3933 124.276 71.3523 118.812C68.3039 113.356 66.7871 105.544 66.7871 95.3678C66.7871 87.0474 67.8621 80.6635 70.0269 76.2236C72.2064 71.7688 75.2253 68.4996 79.0983 66.4158C82.9861 64.3394 88.8914 62.0421 96.8288 59.5239L103.78 57.1971V46.2996C103.78 43.5163 103.22 41.3737 102.101 39.8789C100.996 38.3695 99.671 37.6111 98.1248 37.6111C96.7699 37.6111 95.5771 38.2443 94.561 39.496C93.5596 40.7552 93.0589 42.4413 93.0589 44.5619V50.9531H68.3776V47.4777C68.3776 37.0368 70.8074 29.5852 75.6818 25.1231C80.571 20.6684 88.5306 18.4374 99.568 18.4374C108.382 18.4374 115.546 20.7347 121.068 25.3293C126.583 29.9239 129.345 36.433 129.345 44.8564V125.851H104.074V113.216C102.815 117.575 100.805 120.962 98.0364 123.377C95.2826 125.792 92.0281 127 88.2581 127ZM98.272 107.267C100.194 107.267 101.571 106.471 102.395 104.881C103.22 103.291 103.632 101.332 103.632 98.9905V69.3905C99.8625 70.8484 97.0792 72.6892 95.2973 74.9276C93.5081 77.1513 92.6171 80.2438 92.6171 84.2052V97.8418C92.6171 104.13 94.5021 107.267 98.272 107.267Z" fill="#FDFDFD"/>
<path d="M139.033 125.851V0.441772H164.156V56.1957L176.35 19.6155H202.622L186.658 65.7678L206.981 125.851H179.972L164.156 75.7818V125.851H139.033Z" fill="#FDFDFD"/>
<path d="M239.479 127C218.487 127 207.994 116.36 207.994 95.0733L208.141 86.6498H233.53L233.677 99.1377C233.677 101.656 234.155 103.57 235.12 104.881C236.077 106.177 237.682 106.825 239.921 106.825C243.293 106.825 244.987 104.078 244.987 98.5781C244.987 94.5137 244.191 91.3254 242.601 89.006C241.011 86.6719 238.463 84.1979 234.973 81.5839L221.483 71.1282C216.83 67.5571 213.48 63.8534 211.44 60.0246C209.415 56.1957 208.406 50.8059 208.406 43.855C208.406 38.4358 209.828 33.8117 212.677 29.9828C215.541 26.154 219.341 23.2823 224.075 21.3532C228.825 19.4093 234.104 18.4374 239.921 18.4374C260.516 18.4374 270.817 28.7016 270.817 49.2154V51.2477H244.545V47.1832C244.545 44.6724 244.133 42.5223 243.308 40.7331C242.498 38.9512 241.128 38.0529 239.185 38.0529C237.432 38.0529 236.099 38.5683 235.179 39.5844C234.273 40.5858 233.824 41.9627 233.824 43.7078C233.824 47.5808 235.326 50.5703 238.33 52.6909L253.999 64.1774C259.61 68.345 263.91 72.8659 266.9 77.7551C269.904 82.6295 271.406 88.7925 271.406 96.2514C271.406 106.111 268.593 113.702 262.982 119.018C257.386 124.342 249.552 127 239.479 127Z" fill="#FDFDFD"/>
<path d="M279.229 0.441772H305.382V30.0712C308.092 22.3178 313.261 18.4374 320.904 18.4374C328.046 18.4374 333.458 20.7199 337.132 25.2704C340.821 29.8282 342.67 36.0722 342.67 44.0023V125.851H317.281V45.5927C317.281 43.2807 316.737 41.3957 315.661 39.9378C314.601 38.4873 313.055 37.7583 311.037 37.7583C309.285 37.7583 307.901 38.5094 306.885 39.9967C305.883 41.4915 305.382 43.3102 305.382 45.4455V125.851H279.229V0.441772Z" fill="#FDFDFD"/>
<path d="M371.838 127C363.606 127 357.973 124.276 354.932 118.812C351.884 113.356 350.367 105.544 350.367 95.3678C350.367 87.0474 351.442 80.6635 353.607 76.2236C355.786 71.7688 358.805 68.4996 362.678 66.4158C366.566 64.3394 372.471 62.0421 380.409 59.5239L387.36 57.1971V46.2996C387.36 43.5163 386.8 41.3737 385.681 39.8789C384.576 38.3695 383.251 37.6111 381.705 37.6111C380.35 37.6111 379.157 38.2443 378.141 39.496C377.14 40.7552 376.639 42.4413 376.639 44.5619V50.9531H351.958V47.4777C351.958 37.0368 354.387 29.5852 359.262 25.1231C364.151 20.6684 372.111 18.4374 383.148 18.4374C391.962 18.4374 399.126 20.7347 404.648 25.3293C410.164 29.9239 412.925 36.433 412.925 44.8564V125.851H387.654V113.216C386.395 117.575 384.385 120.962 381.616 123.377C378.863 125.792 375.608 127 371.838 127ZM381.852 107.267C383.774 107.267 385.151 106.471 385.975 104.881C386.8 103.291 387.212 101.332 387.212 98.9905V69.3905C383.443 70.8484 380.659 72.6892 378.877 74.9276C377.088 77.1513 376.197 80.2438 376.197 84.2052V97.8418C376.197 104.13 378.082 107.267 381.852 107.267Z" fill="#FDFDFD"/>
<path d="M422.613 19.6155H447.442V31.9562C448.598 27.4057 450.579 24.0187 453.391 21.795C456.197 19.5566 460.165 18.4374 465.29 18.4374C469.45 18.4374 473.051 19.3799 476.099 21.2648C479.162 23.1498 481.32 25.7416 482.579 29.0403C484.7 25.3735 487.063 22.6933 489.677 20.9998C492.284 19.2915 495.921 18.4374 500.575 18.4374C508.895 18.4374 514.682 20.985 517.922 26.0656C521.162 31.1536 522.782 38.5388 522.782 48.214L522.487 125.851H496.952V47.7723C496.952 40.9024 495.199 37.4638 491.709 37.4638C489.294 37.4638 487.556 38.6567 486.496 41.0276C485.436 43.3838 484.906 46.2113 484.906 49.51V125.851H459.488V47.7723C459.488 44.7681 459.171 42.353 458.546 40.5269C457.912 38.6861 456.587 37.7583 454.569 37.7583C451.956 37.7583 450.107 39.0469 449.032 41.6166C447.972 44.1717 447.442 47.2347 447.442 50.8059V125.851H422.613V19.6155Z" fill="#FDFDFD"/>
<path d="M565.889 125.851V1.17822H589.981V125.851H565.889Z" fill="white"/>
<path d="M599.539 19.6155H624.957V33.1048C626.017 28.7458 627.85 25.2115 630.464 22.5018C633.071 19.7922 636.561 18.4374 640.92 18.4374C648.084 18.4374 653.386 20.6463 656.825 25.0642C660.256 29.4674 661.979 35.7261 661.979 43.855V125.851H637.003V46.4469C637.003 44.1348 636.539 42.1615 635.619 40.5269C634.691 38.8775 633.27 38.0529 631.348 38.0529C628.734 38.0529 627.018 39.2457 626.194 41.6166C625.369 43.9729 624.957 47.139 624.957 51.1004V125.851H599.539V19.6155Z" fill="white"/>
<path d="M685.479 125.851L668.484 19.6155H693.902L699.115 73.3077L699.999 90.567L701 73.1605L706.802 19.6155H732.22L714.931 125.851H685.479Z" fill="white"/>
<path d="M768.639 127C757.697 127 749.855 124.011 745.106 118.017C740.371 112.009 738.008 103.055 738.008 91.1561V48.4791C738.008 38.7229 740.813 31.2788 746.431 26.154C752.042 21.0145 759.876 18.4374 769.935 18.4374C790.353 18.4374 800.565 28.4513 800.565 48.4791V56.1957C800.565 63.9344 800.462 70.2152 800.271 75.0454H763.396V95.6623C763.396 99.3366 763.779 102.216 764.545 104.292C765.325 106.376 766.975 107.414 769.493 107.414C771.437 107.414 772.821 106.84 773.646 105.676C774.47 104.52 774.949 103.195 775.089 101.7C775.221 100.191 775.295 97.9817 775.295 95.0733V84.7648H800.565V90.8615C800.565 103.254 798.165 112.377 793.379 118.223C788.585 124.077 780.339 127 768.639 127ZM775.295 62.4102V48.7736C775.295 41.138 773.41 37.3166 769.64 37.3166C765.377 37.3166 763.249 41.138 763.249 48.7736V62.4102H775.295Z" fill="white"/>
<path d="M838.874 127C817.881 127 807.389 116.36 807.389 95.0733L807.536 86.6498H832.924L833.071 99.1377C833.071 101.656 833.55 103.57 834.515 104.881C835.472 106.177 837.077 106.825 839.315 106.825C842.688 106.825 844.381 104.078 844.381 98.5781C844.381 94.5137 843.586 91.3254 841.996 89.006C840.405 86.6719 837.857 84.1979 834.367 81.5839L820.878 71.1282C816.224 67.5571 812.874 63.8534 810.835 60.0246C808.81 56.1957 807.801 50.8059 807.801 43.855C807.801 38.4358 809.222 33.8117 812.072 29.9828C814.936 26.154 818.735 23.2823 823.47 21.3532C828.219 19.4093 833.498 18.4374 839.315 18.4374C859.91 18.4374 870.211 28.7016 870.211 49.2154V51.2477H843.939V47.1832C843.939 44.6724 843.527 42.5223 842.702 40.7331C841.892 38.9512 840.523 38.0529 838.579 38.0529C836.827 38.0529 835.494 38.5683 834.574 39.5844C833.668 40.5858 833.219 41.9627 833.219 43.7078C833.219 47.5808 834.721 50.5703 837.725 52.6909L853.394 64.1774C859.005 68.345 863.305 72.8659 866.294 77.7551C869.298 82.6295 870.8 88.7925 870.8 96.2514C870.8 106.111 867.988 113.702 862.377 119.018C856.781 124.342 848.946 127 838.874 127Z" fill="white"/>
<path d="M900.564 127C893.886 127 889.284 125.608 886.751 122.818C884.233 120.012 882.981 115.506 882.981 109.299V42.9716H875.883V23.6801H882.981V1.17822H907.662V23.6801H914.908V42.9716H907.662V102.643C907.662 104.469 907.81 105.824 908.104 106.707C908.399 107.576 909.172 108.003 910.431 108.003C911.388 108.003 912.301 107.959 913.17 107.856C914.053 107.76 914.628 107.709 914.908 107.709V125.115C913.472 125.513 911.373 125.918 908.605 126.352C905.851 126.779 903.171 127 900.564 127Z" fill="white"/>
<path d="M922.887 19.6155H947.715V31.9562C948.871 27.4057 950.852 24.0187 953.665 21.795C956.47 19.5566 960.439 18.4374 965.564 18.4374C969.724 18.4374 973.324 19.3799 976.373 21.2648C979.436 23.1498 981.593 25.7416 982.852 29.0403C984.973 25.3735 987.337 22.6933 989.95 20.9998C992.557 19.2915 996.194 18.4374 1000.85 18.4374C1009.17 18.4374 1014.96 20.985 1018.2 26.0656C1021.44 31.1536 1023.06 38.5388 1023.06 48.214L1022.76 125.851H997.225V47.7723C997.225 40.9024 995.473 37.4638 991.983 37.4638C989.568 37.4638 987.83 38.6567 986.77 41.0276C985.709 43.3838 985.179 46.2113 985.179 49.51V125.851H959.761V47.7723C959.761 44.7681 959.445 42.353 958.819 40.5269C958.186 38.6861 956.86 37.7583 954.843 37.7583C952.229 37.7583 950.381 39.0469 949.306 41.6166C948.245 44.1717 947.715 47.2347 947.715 50.8059V125.851H922.887V19.6155Z" fill="white"/>
<path d="M1062.67 127C1051.73 127 1043.89 124.011 1039.14 118.017C1034.4 112.009 1032.04 103.055 1032.04 91.1561V48.4791C1032.04 38.7229 1034.84 31.2788 1040.46 26.154C1046.07 21.0145 1053.91 18.4374 1063.97 18.4374C1084.38 18.4374 1094.6 28.4513 1094.6 48.4791V56.1957C1094.6 63.9344 1094.49 70.2152 1094.3 75.0454H1057.43V95.6623C1057.43 99.3366 1057.81 102.216 1058.58 104.292C1059.36 106.376 1061.01 107.414 1063.52 107.414C1065.47 107.414 1066.85 106.84 1067.68 105.676C1068.5 104.52 1068.98 103.195 1069.12 101.7C1069.25 100.191 1069.33 97.9817 1069.33 95.0733V84.7648H1094.6V90.8615C1094.6 103.254 1092.2 112.377 1087.41 118.223C1082.62 124.077 1074.37 127 1062.67 127ZM1069.33 62.4102V48.7736C1069.33 41.138 1067.44 37.3166 1063.67 37.3166C1059.41 37.3166 1057.28 41.138 1057.28 48.7736V62.4102H1069.33Z" fill="white"/>
<path d="M1103.72 19.6155H1129.13V33.1048C1130.19 28.7458 1132.03 25.2115 1134.64 22.5018C1137.25 19.7922 1140.74 18.4374 1145.1 18.4374C1152.26 18.4374 1157.56 20.6463 1161 25.0642C1164.43 29.4674 1166.16 35.7261 1166.16 43.855V125.851H1141.18V46.4469C1141.18 44.1348 1140.72 42.1615 1139.8 40.5269C1138.87 38.8775 1137.45 38.0529 1135.53 38.0529C1132.91 38.0529 1131.2 39.2457 1130.37 41.6166C1129.55 43.9729 1129.13 47.139 1129.13 51.1004V125.851H1103.72V19.6155Z" fill="white"/>
<path d="M1198.08 127C1191.4 127 1186.8 125.608 1184.26 122.818C1181.74 120.012 1180.49 115.506 1180.49 109.299V42.9716H1173.39V23.6801H1180.49V1.17822H1205.17V23.6801H1212.42V42.9716H1205.17V102.643C1205.17 104.469 1205.32 105.824 1205.62 106.707C1205.91 107.576 1206.68 108.003 1207.94 108.003C1208.9 108.003 1209.81 107.959 1210.68 107.856C1211.57 107.76 1212.14 107.709 1212.42 107.709V125.115C1210.98 125.513 1208.89 125.918 1206.12 126.352C1203.36 126.779 1200.68 127 1198.08 127Z" fill="white"/>
<path d="M1249.59 127C1228.59 127 1218.1 116.36 1218.1 95.0733L1218.25 86.6498H1243.64L1243.78 99.1377C1243.78 101.656 1244.26 103.57 1245.23 104.881C1246.18 106.177 1247.79 106.825 1250.03 106.825C1253.4 106.825 1255.09 104.078 1255.09 98.5781C1255.09 94.5137 1254.3 91.3254 1252.71 89.006C1251.12 86.6719 1248.57 84.1979 1245.08 81.5839L1231.59 71.1282C1226.94 67.5571 1223.59 63.8534 1221.55 60.0246C1219.52 56.1957 1218.51 50.8059 1218.51 43.855C1218.51 38.4358 1219.93 33.8117 1222.78 29.9828C1225.65 26.154 1229.45 23.2823 1234.18 21.3532C1238.93 19.4093 1244.21 18.4374 1250.03 18.4374C1270.62 18.4374 1280.92 28.7016 1280.92 49.2154V51.2477H1254.65V47.1832C1254.65 44.6724 1254.24 42.5223 1253.42 40.7331C1252.61 38.9512 1251.24 38.0529 1249.29 38.0529C1247.54 38.0529 1246.21 38.5683 1245.29 39.5844C1244.38 40.5858 1243.93 41.9627 1243.93 43.7078C1243.93 47.5808 1245.43 50.5703 1248.44 52.6909L1264.11 64.1774C1269.72 68.345 1274.02 72.8659 1277.01 77.7551C1280.01 82.6295 1281.51 88.7925 1281.51 96.2514C1281.51 106.111 1278.7 113.702 1273.09 119.018C1267.49 124.342 1259.66 127 1249.59 127Z" fill="white"/>
</svg>
