<svg xmlns="http://www.w3.org/2000/svg" width="580" height="598" style="width:100%;height:100%;transform:translate3d(0,0,0)"><defs><clipPath id="a"><path d="M0 0h580v598H0z"/></clipPath><clipPath id="b"><path d="M0 0h470v357H0z"/></clipPath><clipPath id="c"><path d="M0 0h38v210H0z"/></clipPath><clipPath id="e"><path d="M0 0h59v142H0z"/></clipPath><clipPath id="g"><path d="M0 0h62v181H0z"/></clipPath><clipPath id="i"><path d="M0 0h56v181H0z"/></clipPath><clipPath id="k"><path d="M0 0h157v29H0z"/></clipPath><mask id="d"><path fill="#fff" d="M0 0h37.913v209.575H0z"/></mask><mask id="f"><path fill="#fff" d="M0 0h59v142H0z"/></mask><mask id="h"><path fill="#fff" d="M0 0h62v181H0z"/></mask><mask id="j"><path fill="#fff" d="M0 0h56v181H0z"/></mask><mask id="l"><path fill="#fff" d="M0 0h157v29H0z"/></mask></defs><g clip-path="url(#a)"><path fill="#EFFAF6" d="M290-299v598h-580v-598z" style="display:block" transform="translate(290 299)"/><g clip-path="url(#b)" style="display:block" transform="translate(55 120.5)"><path fill="#24515D" d="M163.386 14.808q1.272 0 2.064-.864.792-.888.792-2.52t-.816-2.496q-.792-.888-2.088-.888-1.248 0-2.064.888-.792.888-.792 2.52t.792 2.496q.816.864 2.112.864m-.144 8.112q-2.544 0-4.152-1.08-1.584-1.08-1.872-2.928h3.408q.192.456.816.696.648.24 1.632.24 1.632 0 2.376-.624t.744-1.944v-2.664l.192.048q-.24 1.344-1.392 2.136-1.152.768-2.856.768-1.632 0-2.856-.744-1.2-.768-1.872-2.136t-.672-3.216q0-1.872.696-3.264t1.944-2.16q1.272-.768 2.952-.768 1.728 0 2.808.816 1.104.816 1.296 2.232l-.168.024V5.52h3.528v11.712q0 2.64-1.752 4.152-1.752 1.536-4.8 1.536m-11.933-5.16v-7.584q0-1.008-.528-1.512-.504-.504-1.488-.504-.84 0-1.512.384a2.84 2.84 0 0 0-1.032 1.056q-.36.672-.36 1.584l-.312-2.952q.6-1.344 1.752-2.136 1.176-.816 2.88-.816 2.04 0 3.12 1.152 1.08 1.128 1.08 3.048v8.28zm-8.52 0V5.52h3.528V8.4h.072v9.36zM136.2 3.888V0h3.84v3.888zm.12 13.872V5.52h3.6v12.24zm-11.088-9.504V5.52h9.048v2.736zm6.912 9.768q-2.352 0-3.504-1.128-1.128-1.152-1.128-3.48V2.784l3.6-1.344v12.096q0 .816.456 1.224t1.416.408q.36 0 .672-.072t.624-.168v2.736q-.312.168-.888.264a7.3 7.3 0 0 1-1.248.096M118.643 18q-2.04 0-3.552-.792a5.9 5.9 0 0 1-2.352-2.256q-.816-1.44-.816-3.312 0-1.896.816-3.312a5.8 5.8 0 0 1 2.328-2.232q1.488-.816 3.456-.816 1.896 0 3.288.768a5.44 5.44 0 0 1 2.16 2.136q.768 1.368.768 3.216 0 .384-.024.72a7 7 0 0 1-.072.6h-10.608v-2.376h7.704l-.624.432q0-1.488-.72-2.184-.696-.72-1.92-.72-1.416 0-2.208.96-.768.96-.768 2.88 0 1.872.768 2.784.792.912 2.352.912.864 0 1.488-.288t.936-.936h3.384q-.6 1.776-2.064 2.808-1.44 1.008-3.72 1.008m-15.046-3.192q1.272 0 2.064-.864.792-.888.792-2.52t-.816-2.496q-.792-.888-2.088-.888-1.248 0-2.064.888-.792.888-.792 2.52t.792 2.496q.816.864 2.112.864m-.144 8.112q-2.544 0-4.152-1.08-1.584-1.08-1.872-2.928h3.408q.192.456.816.696.648.24 1.632.24 1.632 0 2.376-.624t.744-1.944v-2.664l.192.048q-.24 1.344-1.392 2.136-1.152.768-2.856.768-1.632 0-2.856-.744-1.2-.768-1.872-2.136t-.672-3.216q0-1.872.696-3.264t1.944-2.16q1.272-.768 2.952-.768 1.728 0 2.808.816 1.104.816 1.296 2.232l-.168.024V5.52h3.528v11.712q0 2.64-1.752 4.152-1.752 1.536-4.8 1.536m-14.927-7.8q1.272 0 2.064-.888.792-.912.792-2.592t-.816-2.568q-.792-.912-2.088-.912-1.248 0-2.064.912-.792.912-.792 2.592t.792 2.568q.816.888 2.112.888m2.88 2.64v-2.712l.24.048q-.24 1.32-1.44 2.112Q89.03 18 87.374 18q-1.68 0-2.928-.768-1.224-.792-1.896-2.208t-.672-3.336q0-1.944.696-3.384t1.944-2.232q1.272-.792 2.952-.792 1.752 0 2.832.816 1.104.816 1.296 2.232l-.264.024V.48h3.6v17.28zm-14.939 0v-2.88h-.072V5.52h3.6v12.24zm-4.296.24q-1.296 0-2.232-.552a3.83 3.83 0 0 1-1.392-1.512q-.48-.96-.48-2.136V5.52h3.6v7.584q0 1.008.504 1.512t1.416.504q.816 0 1.44-.384t.984-1.056q.384-.696.384-1.584l.312 2.952q-.6 1.32-1.752 2.136T72.171 18m-19.598-.24V.48h3.696v17.28zm3.024 0v-2.64h4.464q1.2 0 1.8-.648.624-.672.624-1.848 0-1.2-.672-1.896-.648-.696-1.872-.696h-4.344v-2.64h4.152q1.128 0 1.704-.528.6-.552.6-1.608t-.576-1.584q-.552-.552-1.656-.552h-4.224V.48h5.016q2.304 0 3.72 1.176t1.416 3.192q0 1.272-.6 2.184a3.9 3.9 0 0 1-1.608 1.392q-1.008.48-2.256.48l.12-.504q1.344 0 2.424.576 1.104.576 1.752 1.632.648 1.032.648 2.448t-.672 2.496q-.648 1.056-1.848 1.632-1.176.576-2.784.576zm-13.171 0-5.088-6.36 4.968-5.88h4.152l-5.832 6.432.168-1.128 5.904 6.936zm-7.848 0V.48h3.6v17.28zm-7.15.24q-2.688 0-4.272-1.08t-1.728-2.976h3.216q.12.816.816 1.248.72.408 1.968.408 1.128 0 1.632-.312.528-.336.528-.936 0-.456-.312-.696-.288-.264-1.08-.432l-1.968-.408q-2.184-.456-3.216-1.368-1.032-.936-1.032-2.4 0-1.776 1.368-2.76 1.368-1.008 3.816-1.008 2.424 0 3.864.984 1.44.96 1.584 2.688h-3.216q-.096-.624-.672-.936-.576-.336-1.632-.336-.96 0-1.44.288-.456.264-.456.768 0 .432.384.696.384.24 1.272.432l2.208.456q1.848.384 2.784 1.44.96 1.032.96 2.448 0 1.8-1.416 2.808-1.392.984-3.96.984M15.966 3.888V0h3.84v3.888zm.12 13.872V5.52h3.6v12.24zm-6.342 0L2.808 8.784H6.72l8.016 8.976zM0 17.76V.48h7.728q1.872 0 3.264.648 1.392.624 2.16 1.776t.768 2.688q0 1.512-.768 2.664-.768 1.128-2.16 1.776-1.392.624-3.264.624h-4.8V7.944h4.704q1.32 0 2.016-.6.72-.624.72-1.728 0-1.128-.696-1.704-.696-.6-2.04-.6H3.696V17.76z" style="display:block" transform="translate(149.436)"/><path fill="#FFF" d="M234.85-131.643v263.286c0 8.137-6.607 14.744-14.744 14.744h-440.212c-8.137 0-14.744-6.607-14.744-14.744v-263.286c0-8.137 6.607-14.744 14.744-14.744h440.212c8.137 0 14.744 6.607 14.744 14.744" style="display:block" transform="translate(234.85 210.147)"/><g clip-path="url(#c)" style="display:block" transform="translate(31.551 95.142)"><g mask="url(#d)"><path fill="#2D2A2A" d="M2.022 1.453H0V0h3.576v9.238H2.022z" style="display:block" transform="translate(.912 198.593)"/><path fill="#2D2A2A" d="m6.521 9.39-6.407.013V8.189l3.02-2.552c1.251-1.062 1.668-1.669 1.668-2.553 0-1.049-.568-1.643-1.541-1.643-1.011 0-1.643.708-1.656 1.896H0C.013 1.315 1.302 0 3.261 0c1.971 0 3.197 1.125 3.197 2.995 0 1.289-.708 2.263-2.111 3.463L2.679 7.886h3.842z" style="display:block" transform="translate(.746 159.462)"/><path fill="#2D2A2A" d="M3.02 4.664H1.896V3.615l2.376-2.186H.43V0h5.864v1.29l-2.25 2.072c1.415.278 2.515 1.314 2.515 2.945 0 1.895-1.479 3.096-3.349 3.096C1.403 9.403 0 8.291 0 6.294h1.592c0 1.062.657 1.668 1.643 1.668 1.011 0 1.681-.657 1.681-1.681 0-.935-.607-1.617-1.896-1.617" style="display:block" transform="translate(.656 120.66)"/><path fill="#2D2A2A" d="M1.719 6.066h2.97V1.744zm5.623 1.416H6.218v1.756H4.689V7.482H0V6.066L4.183 0h2.035v6.066h1.124z" style="display:block" transform="translate(.769 81.694)"/><path fill="#2D2A2A" d="M3.21 9.39C1.276 9.39 0 8.151 0 6.281h1.605c0 1.049.619 1.668 1.643 1.668 1.087 0 1.782-.708 1.782-1.832 0-1.074-.645-1.807-1.757-1.807-.708 0-1.352.353-1.681.834L.164 4.84 1.302 0h4.815v1.491H2.464l-.493 1.921c.442-.29.999-.455 1.631-.455 1.845 0 3.071 1.251 3.071 3.071 0 1.997-1.403 3.362-3.463 3.362" style="display:block" transform="translate(.73 42.728)"/><path fill="#2D2A2A" d="M1.656 6.053c0 1.125.745 1.909 1.832 1.909 1.049 0 1.807-.784 1.807-1.909 0-1.112-.745-1.883-1.807-1.883-1.1 0-1.832.771-1.832 1.883m-.253-3.336L3.4 0h1.845L3.033 2.945c.227-.064.467-.101.695-.101 1.908 0 3.197 1.339 3.197 3.209 0 1.972-1.466 3.349-3.437 3.349C1.491 9.402 0 7.936 0 6.041 0 4.929.367 4.12 1.403 2.717" style="display:block" transform="translate(.536 3.762)"/></g></g><path fill="none" stroke="#EDEDED" stroke-width="1.053" d="M0 0h386.001" style="display:block" transform="translate(52 104.26)"/><path fill="none" stroke="#EDEDED" stroke-width="1.053" d="M0 0h386.001" style="display:block" transform="translate(52 143.26)"/><path fill="none" stroke="#EDEDED" stroke-width="1.053" d="M0 0h386.001" style="display:block" transform="translate(52 182.26)"/><path fill="none" stroke="#EDEDED" stroke-width="1.053" d="M0 0h386.001" style="display:block" transform="translate(52 221.26)"/><path fill="none" stroke="#EDEDED" stroke-width="1.053" d="M0 0h386.001" style="display:block" transform="translate(52 260.26)"/><path fill="none" stroke="#EDEDED" stroke-width="1.053" d="M0 0h386.001" style="display:block" transform="translate(52 299.26)"/><path fill="#2D2A2A" d="m41.825 9.39-6.407.013V8.19l3.021-2.553c1.251-1.062 1.668-1.668 1.668-2.553 0-1.049-.569-1.643-1.542-1.643-1.011 0-1.643.708-1.656 1.896h-1.605C35.317 1.315 36.606 0 38.565 0c1.971 0 3.197 1.125 3.197 2.995 0 1.289-.707 2.263-2.11 3.463l-1.668 1.428h3.841zm-11.77.013h-1.542V4.449h-1.2V3.16h1.2V1.214h1.542V3.16h1.213v1.289h-1.213zm-6.341-5.169c-.91 0-1.466.493-1.618 1.428h3.135c0-.859-.594-1.428-1.517-1.428m.038 5.333c-1.858 0-3.159-1.352-3.159-3.286 0-1.959 1.276-3.311 3.108-3.311 1.871 0 3.059 1.251 3.059 3.198v.467l-4.702.013c.114 1.099.696 1.655 1.719 1.655.847 0 1.403-.328 1.58-.922h1.428c-.265 1.365-1.403 2.186-3.033 2.186m-9.123-2.06h1.466c.013.544.417.885 1.125.885.72 0 1.112-.291 1.112-.746 0-.316-.165-.543-.721-.67l-1.124-.265c-1.125-.253-1.669-.784-1.669-1.782 0-1.226 1.037-1.959 2.477-1.959 1.403 0 2.351.809 2.364 2.022h-1.466c-.013-.531-.367-.872-.961-.872-.606 0-.96.278-.96.746 0 .354.278.581.809.708l1.124.266c1.049.24 1.58.72 1.58 1.681 0 1.264-1.074 2.048-2.616 2.048-1.554 0-2.54-.834-2.54-2.06m-5.85 0h1.466c.013.543.417.884 1.125.884.72 0 1.112-.29 1.112-.745 0-.316-.164-.544-.72-.67l-1.125-.265c-1.125-.253-1.668-.784-1.668-1.782 0-1.226 1.036-1.959 2.477-1.959 1.403 0 2.35.809 2.363 2.022h-1.466c-.013-.531-.367-.872-.961-.872-.606 0-.96.278-.96.746 0 .354.278.581.809.707l1.124.266c1.049.24 1.58.72 1.58 1.68 0 1.264-1.074 2.048-2.616 2.048-1.554 0-2.54-.834-2.54-2.06M3.956 2.92 2.907 5.902h2.502L4.347 2.92c-.075-.24-.164-.519-.189-.708a7 7 0 0 1-.202.708M1.681 9.403H0L3.336.165h1.656l3.336 9.238H6.622l-.745-2.136h-3.45z" style="display:block" transform="translate(180.663 313.699)"/><path fill="#BEDA7E" d="M0 8.425A8.426 8.426 0 0 1 8.426 0h15.149A8.425 8.425 0 0 1 32 8.425V100H0z" style="display:block" transform="matrix(1 0 0 0 185.333 299.667)"/><path fill="#FFF" d="M12.495 8.316c-1.683 0-2.794-1.078-2.794-2.706h1.397c0 .913.539 1.452 1.43 1.452.946 0 1.551-.616 1.551-1.595 0-.935-.561-1.573-1.529-1.573-.616 0-1.177.308-1.463.726l-1.243-.264.99-4.213h4.191v1.298h-3.179l-.429 1.672c.385-.253.869-.396 1.419-.396 1.606 0 2.673 1.089 2.673 2.673 0 1.738-1.221 2.926-3.014 2.926m-4.679 0c-.484 0-.891-.396-.891-.869a.892.892 0 0 1 1.782 0c0 .473-.407.869-.891.869m-2.14-.143-5.577.011V7.128l2.629-2.222C3.817 3.982 4.18 3.454 4.18 2.684c0-.913-.495-1.43-1.342-1.43-.88 0-1.43.616-1.441 1.65H0C.011 1.144 1.133 0 2.838 0c1.716 0 2.783.979 2.783 2.607 0 1.122-.616 1.969-1.837 3.014L2.332 6.864h3.344z" style="display:block" transform="translate(193.114 211.483)"/><path fill="#2D2A2A" d="M38.11 4.664h-1.125V3.615l2.376-2.187h-3.842V0h5.864v1.289l-2.25 2.073c1.416.278 2.515 1.314 2.515 2.945 0 1.895-1.478 3.096-3.349 3.096-1.807 0-3.21-1.112-3.21-3.109h1.593c0 1.061.657 1.668 1.643 1.668 1.011 0 1.68-.657 1.68-1.681 0-.935-.606-1.617-1.895-1.617m-8.055 4.575h-1.542V4.285h-1.201V2.996h1.201V1.049h1.542v1.947h1.213v1.289h-1.213zM23.714 4.07c-.91 0-1.466.493-1.618 1.428h3.134c0-.86-.594-1.428-1.516-1.428m.038 5.333c-1.858 0-3.16-1.352-3.16-3.286 0-1.959 1.277-3.311 3.109-3.311 1.871 0 3.058 1.251 3.058 3.197v.468l-4.701.012c.114 1.1.695 1.656 1.719 1.656.847 0 1.403-.329 1.58-.923h1.428c-.266 1.365-1.403 2.187-3.033 2.187m-9.123-2.06h1.466c.012.543.417.884 1.125.884.72 0 1.113-.29 1.113-.745 0-.316-.165-.544-.721-.67l-1.125-.265c-1.124-.253-1.668-.784-1.668-1.782 0-1.226 1.037-1.959 2.477-1.959 1.403 0 2.351.809 2.364 2.022h-1.466c-.013-.531-.367-.872-.961-.872-.607 0-.96.278-.96.746 0 .353.278.581.809.707l1.125.266c1.049.24 1.58.72 1.58 1.68 0 1.264-1.074 2.048-2.616 2.048-1.554 0-2.54-.834-2.54-2.06m-5.85 0h1.466c.012.543.417.884 1.125.884.72 0 1.112-.29 1.112-.745 0-.316-.165-.544-.72-.67l-1.124-.265c-1.125-.253-1.668-.784-1.668-1.782 0-1.226 1.036-1.959 2.477-1.959 1.403 0 2.35.809 2.363 2.022h-1.466c-.013-.531-.367-.872-.961-.872-.606 0-.96.278-.96.746 0 .353.278.581.809.707l1.124.266c1.049.24 1.58.72 1.58 1.68 0 1.264-1.074 2.048-2.616 2.048-1.554 0-2.54-.834-2.54-2.06M3.956 2.755 2.907 5.738h2.502L4.347 2.755c-.075-.24-.164-.518-.189-.707a7 7 0 0 1-.202.707M1.681 9.239H0L3.336 0h1.656l3.336 9.239H6.622l-.745-2.136h-3.45z" style="display:block" transform="translate(281.98 313.863)"/><path fill="#BEDA7E" d="M0 8.425A8.426 8.426 0 0 1 8.426 0h15.149A8.425 8.425 0 0 1 32 8.425V134H0z" style="display:block" transform="matrix(1 0 0 0 287 299.667)"/><path fill="#FFF" d="M12.22 8.173c-1.683 0-2.794-1.078-2.794-2.706h1.397c0 .913.539 1.452 1.43 1.452.946 0 1.551-.616 1.551-1.595 0-.935-.561-1.573-1.529-1.573-.616 0-1.177.308-1.463.726l-1.243-.264.99-4.213h4.191v1.298h-3.179l-.429 1.672c.385-.253.869-.396 1.419-.396 1.606 0 2.673 1.089 2.673 2.673 0 1.738-1.221 2.926-3.014 2.926m-4.679 0c-.484 0-.891-.396-.891-.869a.892.892 0 0 1 1.782 0c0 .473-.407.869-.891.869M2.629 4.059H1.65v-.913l2.068-1.903H.374V0h5.104v1.122L3.52 2.926c1.232.242 2.189 1.144 2.189 2.563 0 1.65-1.287 2.695-2.915 2.695C1.221 8.184 0 7.216 0 5.478h1.386c0 .924.572 1.452 1.43 1.452.88 0 1.463-.572 1.463-1.463 0-.814-.528-1.408-1.65-1.408" style="display:block" transform="translate(295.325 177.626)"/><g clip-path="url(#k)" style="display:block" transform="translate(171 106.76)"><g mask="url(#l)"><path fill="#FFF" d="M0 8.425A8.425 8.425 0 0 1 8.425 0h73.719a8.426 8.426 0 0 1 8.426 8.425v11.584a8.426 8.426 0 0 1-8.426 8.425H8.425A8.425 8.425 0 0 1 0 20.009z" style="display:block" transform="translate(33.247 .179)"/><path fill="#2D2A2A" d="M127.866 9.415h-1.529V.013h1.529v5.775l2.426-2.616h1.934l-2.376 2.477 2.325 3.766h-1.769l-1.63-2.628-.91.947zm-7.885-1.895h1.466c.013.543.417.884 1.125.884.72 0 1.112-.29 1.112-.745 0-.316-.164-.544-.72-.67l-1.125-.266c-1.125-.252-1.668-.783-1.668-1.781 0-1.226 1.036-1.959 2.477-1.959 1.403 0 2.35.809 2.363 2.022h-1.466c-.013-.531-.366-.872-.96-.872-.607 0-.961.278-.961.745 0 .354.278.582.809.708l1.125.265c1.049.241 1.579.721 1.579 1.681 0 1.264-1.074 2.048-2.616 2.048-1.554 0-2.54-.835-2.54-2.06m-2.654 1.895V3.172h1.542v6.243zm.771-7.494a.936.936 0 0 1-.948-.935c0-.518.417-.923.948-.923a.92.92 0 0 1 .922.923.93.93 0 0 1-.922.935m-7.392-.303v2.919h1.908c1.024 0 1.63-.543 1.63-1.478 0-.923-.606-1.441-1.63-1.441zm0 7.797h-1.618V.177h3.526c2.098 0 3.324 1.062 3.324 2.882 0 1.238-.582 2.123-1.669 2.565l1.757 3.791h-1.769l-1.567-3.45h-1.984zM99.101 6.281c0 1.138.733 1.908 1.795 1.908s1.794-.77 1.794-1.908-.733-1.908-1.794-1.908c-1.062 0-1.795.771-1.795 1.908m-1.542 0c0-1.946 1.403-3.286 3.337-3.286 1.933 0 3.336 1.34 3.336 3.286s-1.403 3.336-3.336 3.336c-1.934 0-3.337-1.34-3.337-3.286m-1.743 3.134h-1.542V4.461h-1.2V3.172h1.2V1.226h1.542v1.946h1.213v1.289h-1.213zm-11.429 0h-1.542V3.172h1.428l.126.809c.392-.632 1.15-.998 1.997-.998 1.567 0 2.376.973 2.376 2.59v3.842H87.23V5.94c0-1.049-.518-1.555-1.314-1.555-.948 0-1.529.658-1.529 1.669zm-7.895-3.134c0 1.138.733 1.908 1.794 1.908 1.062 0 1.795-.77 1.795-1.908s-.733-1.908-1.795-1.908-1.794.771-1.794 1.908m-1.542 0c0-1.946 1.403-3.286 3.336-3.286 1.934 0 3.337 1.34 3.337 3.286s-1.403 3.336-3.337 3.336c-1.933 0-3.336-1.34-3.336-3.286m-2.768 3.134V3.172h1.541v6.243zm.771-7.494a.936.936 0 0 1-.948-.935c0-.518.417-.923.948-.923a.92.92 0 0 1 .922.923.93.93 0 0 1-.922.935M70.01 9.415h-1.542V4.461h-1.2V3.172h1.2V1.226h1.542v1.946h1.213v1.289H70.01zm-5.257-6.243h1.541v6.243h-1.428l-.113-.834c-.38.594-1.188.999-2.022.999-1.441 0-2.288-.974-2.288-2.503V3.172h1.542v3.362c0 1.188.468 1.668 1.327 1.668.973 0 1.441-.569 1.441-1.757zM54.397 6.268c0 1.125.695 1.896 1.757 1.896 1.086 0 1.731-.783 1.731-1.896S57.24 4.36 56.154 4.36c-1.062 0-1.757.784-1.757 1.908m-.126 3.147h-1.428V.013h1.541v4.069c.405-.695 1.239-1.112 2.187-1.112 1.782 0 2.868 1.39 2.868 3.362 0 1.921-1.175 3.248-2.969 3.248-.936 0-1.732-.417-2.098-1.138zm-4.563 0V3.172h1.542v6.243zm.771-7.494a.936.936 0 0 1-.948-.935c0-.518.417-.923.948-.923a.92.92 0 0 1 .922.923.93.93 0 0 1-.922.935m-1.815 1.226v1.428h-.568c-1.113 0-1.808.594-1.808 1.807v3.033h-1.541v-6.23H46.2l.088.91c.266-.619.86-1.036 1.694-1.036.215 0 .43.025.682.088m-6.089 6.268h-1.542V4.461h-1.2V3.172h1.2V1.226h1.542v1.946h1.213v1.289h-1.213zm-8.023 0H33.01V3.172h1.428l.126.809c.392-.632 1.15-.998 1.997-.998 1.567 0 2.376.973 2.376 2.59v3.842h-1.542V5.94c0-1.049-.518-1.555-1.314-1.555-.948 0-1.529.658-1.529 1.669zm-7.895-3.134c0 1.138.733 1.908 1.794 1.908 1.062 0 1.795-.77 1.795-1.908s-.733-1.908-1.795-1.908-1.794.771-1.794 1.908m-1.542 0c0-1.946 1.403-3.286 3.336-3.286 1.934 0 3.337 1.34 3.337 3.286s-1.403 3.336-3.337 3.336c-1.933 0-3.336-1.34-3.336-3.286m-5.09 3.286c-2.692 0-4.436-1.87-4.436-4.764 0-2.869 1.807-4.778 4.512-4.778 2.186 0 3.816 1.277 4.132 3.261h-1.706c-.316-1.074-1.238-1.706-2.464-1.706-1.706 0-2.781 1.238-2.781 3.21 0 1.959 1.087 3.222 2.781 3.222 1.251 0 2.211-.657 2.515-1.68h1.68c-.353 1.946-2.047 3.235-4.233 3.235M10.022 7.153c0-.733-.48-1.238-1.175-1.238-.708 0-1.188.505-1.188 1.238s.48 1.239 1.188 1.239c.695 0 1.175-.506 1.175-1.239m1.226 0c0 1.416-.999 2.427-2.401 2.427-1.416 0-2.414-1.011-2.414-2.427 0-1.415.998-2.426 2.414-2.426 1.402 0 2.401 1.011 2.401 2.426M3.602 2.427c0-.733-.48-1.239-1.188-1.239s-1.175.506-1.175 1.239.48 1.238 1.175 1.238c.708 0 1.188-.505 1.188-1.238M9.895.19 2.882 9.415H1.34L8.354.19zM4.828 2.427c0 1.428-1.011 2.426-2.414 2.426S0 3.855 0 2.427C0 1.011 1.011 0 2.414 0s2.414 1.011 2.414 2.427" style="display:block" transform="translate(11.915 9.029)"/></g></g><path fill="#2D2A2A" d="M37.288 1.454h-2.022V0h3.577v9.239h-1.555zm-7.233 7.785h-1.542V4.285h-1.2V2.996h1.2V1.049h1.542v1.947h1.213v1.289h-1.213zM23.714 4.07c-.91 0-1.466.493-1.618 1.428h3.134c0-.86-.594-1.428-1.516-1.428m.038 5.333c-1.858 0-3.16-1.352-3.16-3.286 0-1.959 1.277-3.311 3.109-3.311 1.871 0 3.059 1.251 3.059 3.197v.468l-4.702.012c.114 1.1.695 1.656 1.719 1.656.847 0 1.403-.329 1.58-.923h1.428c-.266 1.365-1.403 2.187-3.033 2.187m-9.123-2.06h1.466c.013.543.417.884 1.125.885.72 0 1.112-.291 1.112-.746 0-.316-.165-.544-.721-.67l-1.124-.265c-1.125-.253-1.669-.784-1.669-1.782 0-1.226 1.037-1.959 2.477-1.959 1.403 0 2.351.809 2.364 2.022h-1.466c-.013-.531-.367-.872-.961-.872-.606 0-.96.278-.96.746 0 .354.278.581.809.708l1.124.266c1.049.24 1.58.72 1.58 1.68 0 1.264-1.074 2.048-2.616 2.048-1.554 0-2.54-.834-2.54-2.06m-5.85 0h1.466c.013.543.417.884 1.125.884.72 0 1.112-.29 1.112-.745 0-.316-.164-.544-.72-.67l-1.125-.265c-1.125-.253-1.668-.784-1.668-1.782 0-1.226 1.036-1.959 2.477-1.959 1.403 0 2.35.809 2.363 2.022h-1.466c-.013-.531-.367-.872-.961-.872-.606 0-.96.278-.96.746 0 .354.278.581.809.707l1.124.266c1.049.24 1.58.72 1.58 1.68 0 1.264-1.074 2.048-2.616 2.048-1.554 0-2.54-.834-2.54-2.06M3.956 2.755 2.907 5.738h2.502L4.347 2.755c-.075-.24-.164-.518-.189-.707a7 7 0 0 1-.202.707M1.681 9.239H0L3.336 0h1.656l3.336 9.239H6.622l-.745-2.136h-3.45z" style="display:block" transform="translate(87.34 314.197)"/><path fill="#BEDA7E" d="M0 8.425A8.425 8.425 0 0 1 8.425 0h14.744a8.425 8.425 0 0 1 8.425 8.425v147.439H0z" style="display:block" transform="matrix(1 0 0 0 91.281 299.903)"/><path fill="#FFF" d="M12.906 8.173c-1.683 0-2.794-1.078-2.794-2.706h1.397c0 .913.539 1.452 1.43 1.452.946 0 1.551-.616 1.551-1.595 0-.935-.561-1.573-1.529-1.573-.616 0-1.177.308-1.463.726l-1.243-.264.99-4.213h4.191v1.298h-3.179l-.429 1.672c.385-.253.869-.396 1.419-.396 1.606 0 2.673 1.089 2.673 2.673 0 1.738-1.221 2.926-3.014 2.926m-4.679 0c-.484 0-.891-.396-.891-.869a.892.892 0 0 1 1.782 0c0 .473-.407.869-.891.869M1.496 5.28h2.585V1.518zm4.895 1.232h-.979v1.529H4.081V6.512H0V5.28L3.641 0h1.771v5.28h.979z" style="display:block" transform="translate(98.609 156.959)"/><path fill="#2D2A2A" d="M36.909 6.066h2.97V1.744zm5.624 1.416h-1.125v1.757h-1.529V7.482h-4.688V6.066L39.374 0h2.034v6.066h1.125zM30.055 9.239h-1.542V4.285h-1.2V2.996h1.2V1.049h1.542v1.947h1.213v1.289h-1.213zM23.714 4.07c-.91 0-1.466.493-1.618 1.428h3.135c0-.86-.594-1.428-1.517-1.428m.038 5.333c-1.858 0-3.159-1.352-3.159-3.286 0-1.959 1.276-3.311 3.108-3.311 1.871 0 3.059 1.251 3.059 3.197v.468l-4.702.012c.114 1.1.695 1.656 1.719 1.656.847 0 1.403-.329 1.58-.923h1.428c-.265 1.365-1.403 2.187-3.033 2.187m-9.123-2.06h1.466c.013.543.417.884 1.125.884.72 0 1.112-.29 1.112-.745 0-.316-.165-.544-.721-.67l-1.124-.265c-1.125-.253-1.669-.784-1.669-1.782 0-1.226 1.037-1.959 2.477-1.959 1.403 0 2.351.809 2.364 2.022h-1.466c-.013-.531-.367-.872-.961-.872-.606 0-.96.278-.96.746 0 .353.278.581.809.707l1.124.266c1.049.24 1.58.72 1.58 1.68 0 1.264-1.074 2.048-2.616 2.048-1.554 0-2.54-.834-2.54-2.06m-5.85 0h1.466c.013.543.417.884 1.125.884.72 0 1.112-.29 1.112-.745 0-.316-.164-.544-.72-.67l-1.125-.265c-1.125-.253-1.668-.784-1.668-1.782 0-1.226 1.036-1.959 2.477-1.959 1.403 0 2.35.809 2.363 2.022h-1.466c-.013-.531-.367-.872-.961-.872-.606 0-.96.278-.96.746 0 .353.278.581.809.707l1.124.266c1.049.24 1.58.72 1.58 1.68 0 1.264-1.074 2.048-2.616 2.048-1.554 0-2.54-.834-2.54-2.06M3.956 2.755 2.907 5.738h2.502L4.347 2.755c-.075-.24-.164-.518-.189-.707a7 7 0 0 1-.202.707M1.681 9.239H0L3.336 0h1.656l3.336 9.239H6.622l-.745-2.136h-3.45z" style="display:block" transform="translate(372.92 313.53)"/><path fill="#BEDA7E" d="M0 8.425A8.425 8.425 0 0 1 8.425 0h14.744a8.425 8.425 0 0 1 8.425 8.425v147.439H0z" style="display:block" transform="matrix(1 0 0 0 378.927 299.236)"/><path fill="#FFF" d="M12.906 8.173c-1.683 0-2.794-1.078-2.794-2.706h1.397c0 .913.539 1.452 1.43 1.452.946 0 1.551-.616 1.551-1.595 0-.935-.561-1.573-1.529-1.573-.616 0-1.177.308-1.463.726l-1.243-.264.99-4.213h4.191v1.298h-3.179l-.429 1.672c.385-.253.869-.396 1.419-.396 1.606 0 2.673 1.089 2.673 2.673 0 1.738-1.221 2.926-3.014 2.926m-4.679 0c-.484 0-.891-.396-.891-.869a.892.892 0 0 1 1.782 0c0 .473-.407.869-.891.869M1.496 5.28h2.585V1.518zm4.895 1.232h-.979v1.529H4.081V6.512H0V5.28L3.641 0h1.771v5.28h.979z" style="display:block" transform="translate(386.859 157.292)"/></g></g></svg> 