<svg xmlns="http://www.w3.org/2000/svg" width="84" height="84" viewBox="0 0 84 84" fill="none">
<circle cx="42" cy="42" r="41.5" stroke="#173E48"/>
<g clip-path="url(#clip0_98_297)">
<path d="M38.7326 49.3727C38.8902 49.4466 39.0229 49.5121 39.1582 49.5717C40.0346 49.9578 40.457 50.6448 40.4525 51.5862C40.4479 52.5523 40.0264 53.2752 39.1307 53.6927C38.5227 53.9762 37.8749 54.0744 37.2142 54.0796C35.8839 54.0902 34.5534 54.0743 33.2232 54.0893C32.9241 54.0926 32.811 54.031 32.8125 53.7025C32.8254 50.9079 32.8196 48.1132 32.8206 45.3186C32.8206 45.1447 32.7782 44.9539 33.0717 44.9617C34.6246 45.0031 36.184 44.8539 37.7298 45.0425C38.7049 45.1615 39.5468 45.5683 39.8631 46.6201C40.1565 47.5954 39.8331 48.515 39.0089 49.1096C38.9165 49.1762 38.7895 49.207 38.7326 49.3727ZM36.1394 52.4001C36.4232 52.4001 36.707 52.4016 36.9908 52.3997C37.2591 52.398 37.5255 52.4016 37.7893 52.3219C38.3798 52.1433 38.6401 51.8026 38.6139 51.2124C38.5912 50.6991 38.2925 50.3497 37.7192 50.257C36.7706 50.1038 35.8109 50.2009 34.8562 50.178C34.6243 50.1724 34.6408 50.3262 34.6409 50.4786C34.6415 50.9864 34.6673 51.4959 34.6322 52.0013C34.6071 52.3619 34.7489 52.4284 35.0643 52.406C35.421 52.3806 35.7809 52.4001 36.1394 52.4001ZM35.8527 48.6897C35.8527 48.6934 35.8527 48.6971 35.8528 48.7007C36.2101 48.7007 36.5676 48.7054 36.9248 48.6978C37.0271 48.6956 37.1295 48.6611 37.2306 48.6365C37.8245 48.4924 38.0935 48.1636 38.0755 47.6065C38.0588 47.0942 37.7501 46.7612 37.1892 46.6499C36.6427 46.5414 36.0899 46.5988 35.54 46.5931C34.6411 46.5839 34.6316 46.5908 34.6454 47.5023C34.6514 47.8978 34.4671 48.4267 34.7309 48.6505C34.9548 48.8404 35.4677 48.6897 35.8527 48.6897Z" fill="#36626D"/>
<path d="M34.2907 34.4109C34.2907 36.228 34.2802 38.005 34.2992 39.7817C34.3032 40.1502 34.2118 40.2875 33.8317 40.2514C33.4762 40.2177 33.1143 40.2293 32.7567 40.2487C32.4749 40.2641 32.4074 40.1529 32.4082 39.8847C32.417 37.1209 32.4165 34.3571 32.4089 31.5933C32.4081 31.3337 32.4604 31.233 32.7508 31.2271C34.1646 31.1985 34.1629 31.19 35.0197 32.3055C36.1826 33.8195 37.3482 35.3316 38.5346 36.8731C38.6544 36.7011 38.6114 36.5357 38.6117 36.3846C38.6155 34.801 38.6216 33.2174 38.6076 31.6339C38.6048 31.3268 38.6812 31.1972 39.004 31.2313C39.4737 31.281 40.0861 31.031 40.3797 31.3341C40.6499 31.6131 40.4545 32.2162 40.4557 32.676C40.4619 35.0514 40.451 37.4269 40.4667 39.8021C40.4691 40.1564 40.3589 40.214 40.0213 40.2613C39.1599 40.3819 38.6404 40.0287 38.1469 39.3401C37.0083 37.7514 35.7814 36.2258 34.589 34.6756C34.5192 34.5849 34.4714 34.4692 34.2907 34.4109Z" fill="#36626D"/>
<path d="M67.2132 44.8331C69.9663 44.8574 72.0194 46.8664 72.0018 49.5186C71.9843 52.1473 69.7907 54.2138 67.0529 54.1808C64.3354 54.1481 62.3232 52.1294 62.3539 49.4668C62.3841 46.8357 64.5094 44.8092 67.2132 44.8331ZM67.1569 46.5582C65.5198 46.552 64.3309 47.7814 64.3262 49.4854C64.3217 51.1408 65.56 52.4424 67.1522 52.4558C68.7598 52.4694 69.9839 51.1969 69.9829 49.5131C69.982 47.8336 68.768 46.5642 67.1569 46.5582Z" fill="#36626D"/>
<path d="M25.8163 44.8327C28.6103 44.8568 30.5732 46.8525 30.5445 49.64C30.518 52.222 28.4035 54.2097 25.7137 54.1811C23.0047 54.1522 20.9286 52.1181 20.9454 49.5092C20.9624 46.8624 23.1008 44.8093 25.8163 44.8327ZM25.7979 46.5584C24.1552 46.5556 22.9191 47.8261 22.9203 49.5162C22.9214 51.1688 24.1731 52.4547 25.7814 52.4555C27.4054 52.4563 28.5979 51.1721 28.5863 49.4348C28.5752 47.7728 27.4005 46.5611 25.7979 46.5584Z" fill="#36626D"/>
<path d="M19.789 54.0815C19.1409 54.0815 18.5051 54.0769 17.8696 54.0844C17.6883 54.0865 17.6578 53.9419 17.5885 53.8389C17.0386 53.0214 16.4879 52.2044 15.9507 51.3786C15.8164 51.1721 15.6753 51.0551 15.4126 51.0712C14.9665 51.0987 14.384 50.9276 14.1081 51.1496C13.8188 51.3823 14.0346 51.9886 14.0175 52.431C14.0014 52.8486 13.9953 53.2686 14.0204 53.6853C14.0379 53.9743 13.9281 54.0414 13.6628 54.0284C13.2604 54.0088 12.856 54.0155 12.4529 54.0263C12.2394 54.0321 12.1302 53.9915 12.1309 53.7371C12.1387 50.9136 12.1368 48.0901 12.1335 45.2666C12.1333 45.0746 12.1634 44.956 12.3983 44.9619C13.9507 45.0012 15.507 44.8743 17.056 45.0343C18.4473 45.1781 19.4453 46.1415 19.6477 47.4809C19.8686 48.942 19.2603 50.1087 17.9481 50.6963C17.703 50.806 17.6833 50.8874 17.8344 51.102C18.4104 51.9194 18.9711 52.7477 19.5313 53.5761C19.628 53.7191 19.7668 53.8446 19.789 54.0815ZM15.3628 49.4479C15.3628 49.4452 15.3628 49.4426 15.3628 49.4399C15.6913 49.4399 16.0205 49.4527 16.3484 49.4375C17.2506 49.3954 17.7893 48.8783 17.7946 48.065C17.8001 47.2019 17.294 46.6942 16.3523 46.6593C15.6959 46.635 15.0378 46.659 14.3809 46.644C14.1481 46.6387 14.069 46.7117 14.0729 46.9476C14.0852 47.6792 14.0845 48.4112 14.0733 49.1428C14.0697 49.3725 14.1383 49.4643 14.3771 49.4521C14.7049 49.4353 15.0341 49.4479 15.3628 49.4479Z" fill="#36626D"/>
<path d="M60.254 40.2862C59.6445 40.2862 59.0084 40.2848 58.3723 40.287C58.1786 40.2876 58.1391 40.1201 58.0608 40.004C57.5267 39.2119 56.9909 38.4207 56.4733 37.6179C56.3292 37.3945 56.1794 37.2742 55.8999 37.2957C55.5731 37.3208 55.2412 37.3228 54.9147 37.2957C54.5869 37.2685 54.5149 37.4025 54.5231 37.7045C54.5428 38.421 54.5179 39.1387 54.5351 39.8553C54.5418 40.1383 54.4711 40.2649 54.1652 40.2486C53.7629 40.2273 53.3582 40.2329 52.9553 40.2469C52.7165 40.2553 52.6518 40.1611 52.6523 39.9325C52.6584 37.1389 52.6566 34.3453 52.6556 31.5518C52.6556 31.3808 52.6424 31.2256 52.8983 31.2329C54.4949 31.2782 56.0978 31.1193 57.6879 31.318C59.113 31.496 59.9572 32.382 60.1649 33.8005C60.3616 35.1441 59.7562 36.3105 58.5246 36.8789C58.211 37.0236 58.2108 37.1239 58.3934 37.383C59.0211 38.2735 59.6249 39.1808 60.2373 40.0821C60.2693 40.1292 60.3186 40.1735 60.254 40.2862ZM54.5712 34.2874C54.5712 34.6457 54.5775 35.0043 54.5687 35.3624C54.5639 35.5592 54.613 35.6731 54.839 35.6683C55.5404 35.6534 56.2446 35.6823 56.943 35.6311C57.7878 35.5692 58.2782 35.013 58.2573 34.2308C58.2361 33.4384 57.7333 32.9567 56.8572 32.9262C56.2456 32.9049 55.6313 32.9449 55.0209 32.9099C54.6289 32.8875 54.5303 33.0331 54.5651 33.392C54.5937 33.6878 54.5709 33.9887 54.5712 34.2874Z" fill="#36626D"/>
<path d="M29.7954 40.2442C29.1806 40.2442 28.7617 39.9636 28.5387 39.4023C28.2152 38.5886 27.6123 38.1817 26.73 38.1817C25.9979 38.1817 25.2648 38.2055 24.5342 38.172C24.1499 38.1543 23.9745 38.2912 23.8613 38.6457C23.7211 39.0843 23.5075 39.499 23.3506 39.933C23.2674 40.163 23.1534 40.2644 22.897 40.2501C22.4949 40.2276 22.0891 40.2222 21.6876 40.2501C21.2396 40.2812 21.3724 40.0591 21.4707 39.8293C22.5254 37.3636 23.5781 34.8971 24.6342 32.432C24.8154 32.0091 24.9027 31.4207 25.2268 31.2184C25.5744 31.0014 26.1514 31.166 26.6262 31.1329C26.9027 31.1136 27.0123 31.2355 27.1119 31.4705C28.2798 34.228 29.458 36.9811 30.633 39.7356C30.7773 40.0738 30.6624 40.2433 30.2884 40.2442C30.124 40.2444 29.9597 40.2442 29.7954 40.2442ZM26.0757 33.3025C25.6378 34.3749 25.236 35.364 24.8291 36.3511C24.7472 36.5499 24.8775 36.5449 25.0002 36.5452C25.7157 36.5473 26.4312 36.5442 27.1467 36.5478C27.3279 36.5487 27.382 36.5049 27.3035 36.3156C26.8996 35.3426 26.5072 34.3649 26.0757 33.3025Z" fill="#36626D"/>
<path d="M69.916 40.2442C69.3093 40.2442 68.8895 39.9642 68.6564 39.404C68.4901 39.0075 68.4109 38.4922 68.1133 38.256C67.8072 38.013 67.2785 38.1911 66.8476 38.1847C66.1156 38.1737 65.3821 38.2059 64.6516 38.1717C64.2689 38.1539 64.0877 38.2902 63.973 38.6401C63.8295 39.078 63.6222 39.4948 63.4715 39.9308C63.3816 40.1906 63.2301 40.2629 62.9715 40.2492C62.599 40.2295 62.2231 40.2224 61.8516 40.2502C61.4683 40.2789 61.4342 40.1693 61.579 39.8349C62.6445 37.374 63.6942 34.9062 64.749 32.4406C64.7548 32.4269 64.7618 32.4136 64.7677 32.3999C65.3485 31.0518 65.3482 31.0571 66.8293 31.1328C67.0279 31.143 67.12 31.2177 67.1913 31.3852C68.406 34.237 69.6223 37.088 70.8435 39.937C70.9468 40.1781 70.8908 40.2604 70.633 40.2468C70.3946 40.2341 70.155 40.2441 69.916 40.2442ZM66.1412 33.3046C65.7056 34.3754 65.3138 35.3475 64.9131 36.316C64.8289 36.5195 64.9263 36.5467 65.0881 36.5466C65.7874 36.5459 66.4867 36.5449 67.186 36.5471C67.3505 36.5477 67.4523 36.5086 67.3739 36.3169C66.9775 35.348 66.581 34.3792 66.1412 33.3046Z" fill="#36626D"/>
<path d="M50.5955 40.2441C49.9605 40.2441 49.5232 39.9448 49.2838 39.346C48.9734 38.5697 48.4034 38.1816 47.5741 38.1816C46.7675 38.1816 45.9608 38.1909 45.1545 38.1763C44.9044 38.1718 44.7812 38.2594 44.6955 38.4906C44.5093 38.9934 44.2884 39.4833 44.0976 39.9845C44.0301 40.1618 43.9434 40.2516 43.7431 40.247C43.2804 40.2364 42.817 40.2356 42.3542 40.2467C42.0814 40.2532 42.1097 40.1408 42.1911 39.9507C43.4118 37.1035 44.6301 34.2553 45.8404 31.4037C45.9315 31.1891 46.0524 31.124 46.2758 31.1342C46.7522 31.156 47.3386 30.9848 47.6764 31.2049C48.0115 31.4232 48.1036 32.0219 48.2908 32.4587C49.3413 34.9092 50.3781 37.3656 51.4461 39.8084C51.631 40.2312 51.5065 40.2842 51.1329 40.2472C50.9554 40.2296 50.7747 40.2441 50.5955 40.2441ZM46.7957 33.3077C46.3673 34.3565 45.9722 35.3346 45.5662 36.3082C45.4879 36.496 45.5411 36.5475 45.7236 36.5469C46.4398 36.5447 47.156 36.5437 47.8722 36.5477C48.0634 36.5487 48.1026 36.4854 48.0286 36.3075C47.6235 35.3337 47.2259 34.3567 46.7957 33.3077Z" fill="#36626D"/>
<path d="M57.2147 44.8182C58.4215 44.8239 59.5116 45.1446 60.4435 45.9406C60.6228 46.0938 60.6837 46.1935 60.4867 46.3897C60.2234 46.652 59.9875 46.9443 59.7605 47.2397C59.5817 47.4723 59.4483 47.5035 59.1973 47.3009C58.429 46.6809 57.5425 46.4022 56.561 46.6149C55.4456 46.8567 54.7587 47.5913 54.4884 48.6745C54.1883 49.8774 54.4334 50.983 55.3939 51.8129C56.2787 52.5774 57.3146 52.6262 58.3801 52.2025C58.5725 52.126 58.7557 52.018 58.9291 51.9033C59.5916 51.465 59.5894 51.4618 60.163 52.0352C60.5663 52.4384 60.5528 52.8139 60.1225 53.1615C58.6083 54.3847 56.2902 54.5295 54.5716 53.5083C52.9546 52.5475 52.1237 50.5547 52.4996 48.5389C52.8541 46.638 54.3251 45.2276 56.3225 44.8886C56.6155 44.8389 56.9171 44.8404 57.2147 44.8182Z" fill="#36626D"/>
<path d="M11.9962 35.7993C11.9792 32.9944 14.2442 30.8952 17.0464 31.0895C18.1502 31.166 19.1499 31.4638 20.0142 32.182C20.2345 32.3651 20.2375 32.4826 20.0562 32.6772C19.792 32.9607 19.5331 33.2511 19.2973 33.5581C19.1369 33.7669 19.0225 33.7495 18.8305 33.594C18.337 33.1944 17.7841 32.9055 17.1387 32.8414C15.3345 32.6622 13.969 33.9226 13.9717 35.7749C13.9734 36.954 14.4173 37.9265 15.4961 38.4672C16.596 39.0184 17.6706 38.8284 18.6551 38.112C19.1475 37.7537 19.1443 37.7493 19.5906 38.1955C19.6751 38.28 19.7596 38.3644 19.8441 38.4489C20.1744 38.7792 20.1591 39.0863 19.7981 39.3701C17.4508 41.2162 14.0324 40.6429 12.596 38.1559C12.1769 37.4301 11.9971 36.6357 11.9962 35.7993Z" fill="#36626D"/>
<path d="M46.5034 54.0238C45.5023 54.0238 44.5011 54.0134 43.5004 54.0301C43.2003 54.035 43.0881 53.9679 43.0919 53.6406C43.1094 52.1172 43.1096 50.5933 43.092 49.0698C43.088 48.7284 43.195 48.6431 43.5251 48.6455C45.5121 48.6597 47.4994 48.661 49.4863 48.6445C49.8285 48.6416 49.9339 48.7406 49.904 49.0735C49.8695 49.4583 50.0216 49.9632 49.8283 50.2021C49.6226 50.4563 49.0982 50.2809 48.7139 50.2844C47.5934 50.2949 46.4727 50.2949 45.3523 50.2839C45.0704 50.2811 44.9509 50.358 44.968 50.6616C44.9924 51.0934 44.9914 51.5286 44.9685 51.9605C44.9519 52.2722 45.0567 52.3741 45.3714 52.3708C46.7159 52.3567 48.0608 52.3764 49.4052 52.3574C49.7698 52.3523 49.9651 52.4043 49.9054 52.8328C49.8523 53.2139 50.0621 53.7454 49.8263 53.9497C49.5997 54.1462 49.0868 54.0195 48.6997 54.0223C47.9676 54.0275 47.2355 54.0238 46.5034 54.0238Z" fill="#36626D"/>
<path d="M46.529 46.6486C45.5299 46.6486 44.5303 46.6308 43.5319 46.6579C43.1636 46.668 43.065 46.5441 43.0948 46.2031C43.1207 45.9072 43.1156 45.6062 43.0959 45.3093C43.0772 45.0276 43.1937 44.958 43.4594 44.9591C45.4874 44.968 47.5156 44.9683 49.5436 44.9588C49.8074 44.9575 49.9245 45.0144 49.904 45.3028C49.8737 45.7313 50.0374 46.2907 49.8232 46.557C49.5952 46.8404 49.0134 46.6344 48.5869 46.6443C47.9013 46.6604 47.215 46.6486 46.529 46.6486Z" fill="#36626D"/>
</g>
<defs>
<clipPath id="clip0_98_297">
<rect width="60.005" height="23.1095" fill="white" transform="translate(11.9961 31.077)"/>
</clipPath>
</defs>
</svg>