<svg xmlns="http://www.w3.org/2000/svg" viewBox="36.02344512939453 34.02501678466797 41.975074768066406 45.4859619140625"><g xmlns="http://www.w3.org/2000/svg" clip-path="url(#clip0_98_302)">
<path d="M47.9031 43.9069C58.282 33.5945 70.876 30.9196 75.9142 37.9458C80.9554 44.9751 76.5254 59.1788 66.1465 69.4882C55.7645 79.8732 43.1735 82.5451 38.0567 75.4432C33.0972 68.3414 37.5271 54.2102 47.9031 43.9069Z" fill="#36626D"></path>
<path d="M75.9141 37.9458C77.6692 40.542 78.2048 43.9825 77.8235 47.8739C76.4497 53.142 73.0909 58.7975 68.0527 63.6814C58.7419 72.7713 47.5974 75.0619 42.9435 68.8769C38.4379 62.6889 42.2566 50.3188 51.3405 41.3106C52.4843 40.2364 53.6281 39.2439 54.7749 38.4057C63.3989 32.9046 71.9471 32.4507 75.9141 37.9458Z" fill="#26505A"></path>
<path d="M67.9022 39.5496V39.7796C67.8235 41.0777 67.061 42.6814 65.6872 44.0552C63.6296 46.0402 60.882 46.8028 59.7322 45.662C58.4371 44.4395 59.2027 41.7646 61.2633 39.6252C63.3996 37.5646 66.1472 36.8777 67.291 38.1002C67.6722 38.4814 67.9022 38.9383 67.9022 39.5496ZM59.9652 74.602C55.0783 78.2664 50.0431 80.1032 45.1562 79.3407C47.2169 79.4163 48.8993 77.1226 50.2731 74.0695C51.6469 70.9376 52.4094 68.0388 53.0963 65.2852C54.0888 60.9339 54.1645 57.8807 53.6289 57.1938C52.7907 56.1196 50.96 56.3526 48.8207 57.5751C47.7525 58.1863 46.3787 57.8051 47.9855 55.82C49.6619 53.835 56.1465 49.0964 58.4371 48.3339C61.0333 47.647 63.9322 48.6395 62.9427 51.4627C62.2498 53.5234 53.2476 77.047 59.9652 74.602Z" fill="#09262C"></path>
</g></svg>