<svg xmlns="http://www.w3.org/2000/svg" width="84" height="84" viewBox="0 0 84 84" fill="none">
<circle cx="42" cy="42" r="41.5" stroke="#173E48"/>
<g clip-path="url(#clip0_217_13)">
<path d="M41.473 43.8137C30.9062 43.8135 20.3394 43.815 9.77262 43.803C9.56139 43.8027 9.15314 43.9835 9.15234 43.6464C9.15171 43.3791 9.55602 43.5333 9.7675 43.5332C30.9579 43.5238 52.1483 43.5238 73.3387 43.5314C73.52 43.5314 73.8626 43.3922 73.8649 43.6647C73.8674 43.9484 73.5236 43.8062 73.3437 43.8064C62.7201 43.8148 52.0965 43.8139 41.473 43.8137Z" fill="#36626D"/>
<path d="M9.47864 36.1915C9.91841 36.1933 10.3591 36.2129 10.7976 36.1902C11.0703 36.1762 11.1826 36.2781 11.2808 36.5266C11.8406 37.9429 12.4225 39.3506 13.0229 40.8252C13.315 40.1305 13.5881 39.487 13.8562 38.8415C14.0859 38.2882 14.2976 37.7271 14.5426 37.1808C14.6436 36.9555 14.709 36.7158 14.8 36.4892C14.9063 36.2242 15.0418 36.1945 15.2687 36.2007C15.6089 36.2101 15.9496 36.2038 16.2901 36.2027C16.3952 36.2023 16.4887 36.2043 16.4871 36.3517C16.4859 36.4623 16.4703 36.5427 16.3356 36.5557C15.8314 36.6041 15.764 36.9856 15.7911 37.3621C15.8773 38.5612 15.997 39.7578 16.1037 40.9553C16.0921 41.4803 16.1384 41.9675 16.8113 42.0538C16.9496 42.0715 16.9393 42.1769 16.9386 42.2783C16.9378 42.4076 16.8455 42.3978 16.7623 42.3979C16.0398 42.3987 15.3174 42.3986 14.595 42.3973C14.5163 42.3972 14.4118 42.4272 14.4032 42.3002C14.397 42.208 14.3606 42.0825 14.4985 42.0558C15.2338 41.9134 15.0933 41.3611 15.0667 40.8609C14.9933 39.8468 14.9199 38.8326 14.8465 37.8185C14.8215 37.8167 14.7966 37.815 14.7716 37.8132C14.398 38.7483 14.0244 39.6834 13.6509 40.6186C13.4505 41.0844 13.2509 41.5506 13.0491 42.0158C12.9916 42.1486 13.0001 42.3273 12.7752 42.3341C12.5531 42.3409 12.5326 42.1718 12.4767 42.0358C11.9728 40.8091 11.4748 39.5798 10.9674 38.3545C10.9132 38.2236 10.9115 38.0454 10.701 37.9723C10.5748 38.4883 10.5824 39.0068 10.5301 39.5161C10.4724 40.0778 10.426 40.6429 10.4207 41.207C10.4165 41.6522 10.5783 42.0233 11.1116 42.0528C11.2664 42.0613 11.3026 42.1351 11.2938 42.2697C11.2838 42.4217 11.179 42.398 11.0794 42.3979C10.4559 42.3971 9.83236 42.3971 9.20887 42.4C9.10478 42.4004 9.01013 42.412 9.00097 42.2639C8.99252 42.1273 9.03827 42.0504 9.18047 42.0318C9.68679 41.9657 9.85015 41.5987 9.89798 41.1658C10.0439 39.8447 10.1803 38.5225 10.308 37.1995C10.3518 36.7458 9.9918 36.6223 9.66059 36.5633C9.36599 36.5109 9.32639 36.4204 9.47864 36.1915Z" fill="#36626D"/>
<path d="M47.6739 39.2722C47.681 37.4597 49.0777 36.064 50.8795 36.0687C52.6572 36.0734 54.0681 37.51 54.0623 39.3094C54.0565 41.0922 52.6103 42.5553 50.8614 42.5477C49.0557 42.5399 47.6666 41.1124 47.6739 39.2722ZM48.7599 39.2949C48.7734 39.8931 48.8475 40.4785 49.1365 41.0156C49.51 41.7096 50.0785 42.0866 50.882 42.079C51.6695 42.0715 52.2412 41.6981 52.5735 41.0052C53.1046 39.8974 53.1029 38.7541 52.6028 37.6442C52.2689 36.9031 51.6543 36.508 50.8085 36.5275C49.9616 36.5471 49.408 36.9904 49.0623 37.7261C48.8297 38.2209 48.7735 38.7554 48.7599 39.2949Z" fill="#36626D"/>
<path d="M61.0318 41.1571C61.3214 40.3642 61.5945 39.6849 61.8126 38.9885C61.9127 38.6691 61.7058 38.4145 61.4198 38.2711C61.2888 38.2054 61.1288 38.189 61.1915 37.9958C61.2494 37.8172 61.4099 37.9201 61.5213 37.9168C61.9181 37.9049 62.3154 37.9089 62.7124 37.9083C62.8045 37.9082 62.9232 37.8652 62.9265 38.0276C62.9286 38.1341 62.9171 38.2236 62.7787 38.2363C62.481 38.2636 62.5378 38.4742 62.5964 38.6457C62.8746 39.4606 63.1655 40.2712 63.4785 41.1586C63.794 40.2986 64.0903 39.5115 64.3692 38.7183C64.4486 38.4925 64.472 38.2531 64.1151 38.2319C63.9845 38.2241 63.9595 38.1341 63.9638 38.023C63.9688 37.8954 64.062 37.9061 64.1449 37.906C64.5136 37.9058 64.8823 37.9085 65.251 37.9086C65.3368 37.9086 65.4283 37.8959 65.4371 38.019C65.4446 38.1241 65.4305 38.2118 65.3014 38.2443C64.9486 38.333 64.8363 38.632 64.7277 38.9262C64.3267 40.0131 63.931 41.102 63.5287 42.1884C63.484 42.3091 63.4982 42.4917 63.2949 42.49C63.0915 42.4884 63.1064 42.3048 63.0622 42.1836C62.748 41.3221 62.4406 40.4582 62.1303 39.593C61.9583 39.6417 61.9653 39.7948 61.9246 39.903C61.6309 40.6834 61.3478 41.4678 61.0612 42.2509C61.0235 42.354 61.0139 42.4785 60.8634 42.4911C60.6793 42.5064 60.6722 42.355 60.6315 42.2429C60.2316 41.1406 59.8368 40.0365 59.4347 38.935C59.3246 38.6333 59.2474 38.2973 58.8463 38.2302C58.7357 38.2117 58.7442 38.1112 58.7444 38.0269C58.7447 37.9059 58.8281 37.904 58.9184 37.9044C59.3721 37.9065 59.8258 37.9061 60.2794 37.9067C60.3617 37.9068 60.46 37.8852 60.4687 38.0104C60.4757 38.1101 60.4783 38.2166 60.3392 38.2337C60.0144 38.2736 60.0939 38.4905 60.1581 38.6767C60.4296 39.4646 60.7109 40.2492 61.0318 41.1571Z" fill="#36626D"/>
<path d="M17.9632 40.5335C17.8894 39.247 18.3149 38.4931 19.4178 37.9559C21.0689 37.3857 22.5019 38.5502 22.5748 40.0366C22.633 41.2232 21.7911 42.2878 20.6556 42.4784C19.479 42.6759 18.407 41.9937 18.0467 40.8179C18.0177 40.7234 17.991 40.6283 17.9632 40.5335ZM19.3785 38.5324C19.3498 38.5417 19.3324 38.561 19.3261 38.5904C18.829 39.1718 18.6966 39.8428 18.8351 40.5806C18.8661 40.7459 18.8791 40.9173 18.9315 41.0756C19.1502 41.7374 19.607 42.0945 20.2252 42.1044C20.8737 42.1149 21.3379 41.7747 21.5703 41.0911C21.801 40.4123 21.7944 39.7277 21.5123 39.0666C21.1285 38.167 20.1636 37.9341 19.3816 38.5341L19.3785 38.5324Z" fill="#36626D"/>
<path d="M39.2775 42.3996C39.079 42.3996 38.8804 42.4034 38.682 42.398C38.5822 42.3952 38.4403 42.4628 38.4269 42.2745C38.4187 42.1587 38.4606 42.0878 38.5846 42.0682C38.8539 42.0256 38.8411 41.856 38.7637 41.6581C38.7329 41.5792 38.709 41.4976 38.6827 41.4169C38.3782 40.4841 38.368 40.4379 37.382 40.6016C36.8465 40.6905 37.0117 41.3117 36.8191 41.6713C36.7314 41.8352 36.754 42.0454 37.0299 42.0723C37.1614 42.0851 37.1861 42.1786 37.1754 42.2863C37.1603 42.4375 37.0435 42.3995 36.949 42.3994C36.6371 42.3991 36.3251 42.4006 36.0131 42.3966C35.9248 42.3955 35.8004 42.4502 35.7886 42.2875C35.7809 42.1803 35.7986 42.0947 35.9307 42.0706C36.2926 42.0048 36.3596 41.6916 36.4552 41.4153C36.8291 40.3339 37.1967 39.2504 37.5621 38.1661C37.6316 37.9599 37.6793 37.7966 37.9764 37.8C38.2596 37.8032 38.3306 37.9388 38.401 38.154C38.7611 39.2546 39.1282 40.3529 39.4944 41.4516C39.5873 41.7303 39.6377 42.0449 40.024 42.0829C40.1431 42.0946 40.1253 42.1981 40.1279 42.28C40.1319 42.4026 40.051 42.4055 39.9581 42.404C39.7313 42.4002 39.5044 42.4028 39.2776 42.4028L39.2775 42.3996ZM37.7895 38.7238C37.6856 39.0353 37.61 39.2628 37.5338 39.4901C37.3139 40.147 37.3925 40.2364 38.0717 40.1262C38.1975 40.1058 38.2499 40.0802 38.2029 39.9453C38.0697 39.5635 37.9431 39.1795 37.7895 38.7238Z" fill="#36626D"/>
<path d="M68.8257 42.4019C68.613 42.4018 68.4003 42.4044 68.1877 42.4006C68.0973 42.3991 67.9757 42.4428 67.9661 42.2837C67.9595 42.1741 67.9847 42.0898 68.1144 42.07C68.3797 42.0295 68.3776 41.8625 68.3027 41.662C68.2731 41.5826 68.2493 41.501 68.2226 41.4205C68.0169 40.7999 67.5822 40.521 66.9185 40.5838C66.8762 40.5878 66.8162 40.5739 66.7942 40.5968C66.4873 40.9168 66.4675 41.3549 66.3377 41.7463C66.2698 41.9509 66.3896 42.0592 66.6024 42.081C66.7088 42.092 66.7171 42.1898 66.7153 42.2783C66.7129 42.3988 66.6294 42.4035 66.539 42.403C66.1987 42.4012 65.8583 42.4016 65.518 42.3997C65.4374 42.3993 65.3379 42.4224 65.3284 42.2959C65.3207 42.1932 65.326 42.0956 65.4617 42.073C65.8068 42.0155 65.8848 41.7226 65.9762 41.4596C66.3519 40.3787 66.7185 39.2946 67.0842 38.2102C67.1553 37.9994 67.1739 37.8029 67.5025 37.7991C67.8498 37.7951 67.879 38.0035 67.9539 38.2309C68.312 39.3172 68.6735 40.4025 69.0379 41.4868C69.1271 41.7523 69.1895 42.0488 69.5536 42.0806C69.6767 42.0913 69.6633 42.1878 69.6671 42.2707C69.6743 42.4289 69.5633 42.4037 69.4638 42.4027C69.2512 42.4004 69.0384 42.402 68.8257 42.4019ZM67.3327 38.7355C67.2402 38.9956 67.1757 39.174 67.1132 39.3531C66.9149 39.9208 67.1382 40.1653 67.7831 40.0867C67.64 39.6574 67.4991 39.2349 67.3327 38.7355Z" fill="#36626D"/>
<path d="M25.8626 40.0725C25.8626 40.5534 25.8535 41.0345 25.8662 41.515C25.8731 41.7734 25.904 42.0428 26.2543 42.0705C26.3888 42.0811 26.4091 42.1612 26.4084 42.2719C26.4075 42.428 26.2997 42.4025 26.2025 42.4024C25.7069 42.4019 25.2113 42.4004 24.7158 42.4041C24.6087 42.4049 24.5168 42.4127 24.5191 42.2623C24.5208 42.1466 24.5534 42.0802 24.6828 42.0667C25.0003 42.0336 25.0515 41.7967 25.0528 41.5423C25.0579 40.5523 25.0512 39.5622 25.0624 38.5722C25.0649 38.348 24.987 38.2555 24.77 38.2893C24.3786 38.3504 23.8687 38.1792 23.7579 38.8008C23.7417 38.8913 23.653 38.881 23.5841 38.8763C23.5073 38.8711 23.4466 38.8351 23.4458 38.7487C23.4428 38.4235 23.4224 38.0965 23.4491 37.7736C23.467 37.5564 23.6682 37.5782 23.7458 37.6974C23.8948 37.9263 24.1005 37.8974 24.3074 37.8983C25.0439 37.9014 25.7804 37.9035 26.5168 37.8972C26.7613 37.8951 27.0159 37.9563 27.2005 37.6783C27.2783 37.5611 27.4713 37.5894 27.4748 37.812C27.4794 38.109 27.4757 38.406 27.4756 38.7031C27.4756 38.7986 27.4419 38.8678 27.3355 38.8776C27.2365 38.8868 27.1995 38.8358 27.1545 38.7466C26.9782 38.3966 26.3048 38.1562 25.9706 38.2998C25.8237 38.3629 25.863 38.484 25.862 38.5874C25.857 39.0824 25.8598 39.5775 25.8598 40.0725C25.8607 40.0725 25.8616 40.0725 25.8626 40.0725Z" fill="#36626D"/>
<path d="M55.3372 41.7395C55.4117 41.564 55.1779 41.2109 55.4601 41.1439C55.7845 41.0668 55.6598 41.4704 55.7638 41.6434C56.0134 42.0587 56.5432 42.2483 56.9746 42.0288C57.4483 41.7877 57.4758 41.2132 57.0283 40.8381C56.6263 40.5012 56.1267 40.3003 55.7494 39.9286C55.1496 39.3379 55.225 38.4237 55.9061 37.9905C56.2269 37.7864 56.5789 37.7823 56.9332 37.8381C57.1375 37.8702 57.3241 37.9757 57.5379 37.8315C57.6406 37.7622 57.7543 37.8241 57.7518 37.9869C57.7476 38.2559 57.7526 38.525 57.7498 38.7941C57.7489 38.8758 57.7569 38.97 57.6398 38.9891C57.5158 39.0093 57.4564 38.9373 57.4279 38.8321C57.3828 38.6656 57.3165 38.5139 57.1891 38.3904C56.8807 38.0915 56.3311 38.081 56.0755 38.3736C55.8466 38.6356 55.9144 39.0731 56.271 39.3405C56.5982 39.586 56.9652 39.778 57.3073 40.0046C57.674 40.2476 57.9511 40.5582 57.9998 41.0209C58.1014 41.9849 57.252 42.6782 56.2456 42.46C56.02 42.4111 55.7942 42.2208 55.554 42.4747C55.4843 42.5484 55.334 42.4973 55.3366 42.3284C55.3393 42.1443 55.3372 41.9602 55.3372 41.7395Z" fill="#36626D"/>
<path d="M33.1238 42.4053C32.6418 42.4053 32.1598 42.4074 31.6779 42.4036C31.5779 42.4028 31.44 42.4592 31.4303 42.2704C31.4227 42.1239 31.4915 42.0802 31.6272 42.0607C31.8661 42.0264 31.944 41.8521 31.9535 41.6324C31.996 40.6422 31.998 39.6521 31.9521 38.662C31.9417 38.4386 31.8513 38.2726 31.6143 38.2439C31.4668 38.2261 31.4221 38.1586 31.4312 38.023C31.4421 37.8604 31.5596 37.9089 31.6499 37.9087C32.1602 37.9076 32.6706 37.9085 33.181 37.909C33.2727 37.9091 33.3897 37.8582 33.4035 38.0183C33.4149 38.1506 33.3783 38.2343 33.223 38.2358C32.8826 38.239 32.7962 38.4716 32.7939 38.7502C32.7859 39.6988 32.7894 40.6474 32.7826 41.596C32.7805 41.8907 32.9328 41.9988 33.2064 41.9934C33.419 41.9892 33.6318 41.9935 33.8444 41.992C34.244 41.9892 34.5763 41.8665 34.7126 41.4526C34.7656 41.2916 34.8639 41.2514 34.9989 41.2976C35.1546 41.3509 35.0396 41.4648 35.0245 41.5456C34.9187 42.1118 34.5829 42.3948 34.0171 42.3945C33.7193 42.3945 33.4216 42.3945 33.1238 42.3945C33.1238 42.3981 33.1238 42.4017 33.1238 42.4053Z" fill="#36626D"/>
<path d="M72.0427 42.4032C71.5756 42.4032 71.1083 42.4071 70.6413 42.4003C70.5333 42.3987 70.3704 42.4831 70.3493 42.2703C70.3341 42.1176 70.429 42.0815 70.5541 42.0626C70.8239 42.0219 70.8895 41.8082 70.8917 41.5924C70.9019 40.6318 70.902 39.6709 70.8909 38.7103C70.8881 38.4737 70.8027 38.2601 70.5087 38.2354C70.3845 38.225 70.3439 38.1508 70.3484 38.0336C70.3544 37.8766 70.4663 37.9076 70.5608 37.9074C71.0846 37.9067 71.6084 37.9082 72.1322 37.9054C72.2382 37.9048 72.3337 37.8999 72.3349 38.0467C72.336 38.1678 72.2851 38.229 72.16 38.2321C71.795 38.2413 71.7192 38.5046 71.7155 38.7863C71.7033 39.7191 71.7082 40.6522 71.7071 41.5853C71.7068 41.8645 71.8448 42 72.1271 41.9937C72.3536 41.9887 72.5803 41.9971 72.8067 41.9917C73.1898 41.9826 73.5067 41.8504 73.6382 41.461C73.6929 41.299 73.7906 41.2547 73.923 41.3012C74.0604 41.3494 73.9735 41.4688 73.9573 41.555C73.8524 42.1149 73.5115 42.3948 72.9348 42.3946C72.6374 42.3946 72.3401 42.3946 72.0427 42.3946C72.0427 42.3975 72.0427 42.4004 72.0427 42.4032Z" fill="#36626D"/>
<path d="M42.5035 42.4048C42.0358 42.4048 41.5679 42.4087 41.1002 42.4019C40.9919 42.4003 40.8284 42.4799 40.8116 42.2661C40.7993 42.111 40.8978 42.0807 41.0216 42.0629C41.3214 42.0197 41.3616 41.7695 41.3651 41.5508C41.38 40.6165 41.3798 39.6818 41.3644 38.7475C41.3605 38.5071 41.2959 38.2574 40.9705 38.2349C40.8455 38.2262 40.8061 38.1492 40.8111 38.0322C40.8178 37.8743 40.9315 37.9079 41.0251 37.9076C41.5638 37.9057 42.1025 37.9043 42.6412 37.9046C42.7234 37.9047 42.8185 37.894 42.8239 38.0203C42.8286 38.1284 42.8126 38.225 42.6753 38.2265C42.2057 38.2318 42.179 38.5674 42.1766 38.9059C42.1706 39.7696 42.1838 40.6336 42.1703 41.4971C42.1646 41.8634 42.3141 42.0193 42.6763 41.9957C42.8599 41.9838 43.0449 41.9934 43.2292 41.9932C43.6289 41.9927 43.9627 41.8708 44.1038 41.4611C44.1593 41.3001 44.2584 41.2537 44.3905 41.3019C44.5248 41.3509 44.4402 41.4702 44.4229 41.5575C44.3124 42.1157 43.9703 42.3947 43.3969 42.3946C43.0991 42.3946 42.8013 42.3946 42.5035 42.3946C42.5035 42.398 42.5035 42.4014 42.5035 42.4048Z" fill="#36626D"/>
<path d="M29.3773 37.9077C29.6178 37.9071 29.8582 37.9066 30.0987 37.9074C30.1935 37.9076 30.3076 37.8776 30.3093 38.0343C30.3103 38.1239 30.2999 38.2152 30.1909 38.2255C29.7206 38.2699 29.7408 38.6329 29.7353 38.9513C29.7216 39.7423 29.7218 40.5338 29.7347 41.3248C29.7401 41.6564 29.7084 42.0357 30.2009 42.0864C30.3107 42.0978 30.3093 42.1978 30.3091 42.2842C30.3087 42.4124 30.2131 42.4031 30.1307 42.4034C29.6074 42.4049 29.0841 42.4049 28.5608 42.4034C28.4786 42.4031 28.3848 42.4137 28.3817 42.2848C28.3791 42.1759 28.3962 42.0851 28.5283 42.0725C28.8948 42.0377 28.9369 41.7561 28.9406 41.4855C28.9529 40.5956 28.9525 39.7052 28.9406 38.8153C28.9369 38.5417 28.8842 38.2673 28.5217 38.2315C28.3874 38.2182 28.3724 38.1183 28.384 38.0138C28.4013 37.8589 28.5247 37.9109 28.6134 37.9096C28.868 37.9059 29.1227 37.9083 29.3773 37.9077Z" fill="#36626D"/>
<path d="M21.0861 45.529C20.884 46.0304 20.6852 46.533 20.4776 47.0321C20.4232 47.163 20.435 47.3465 20.2091 47.3578C19.9559 47.3705 19.9595 47.1678 19.9011 47.0241C19.7057 46.5437 19.5205 46.0593 19.3313 45.5765C19.2947 45.578 19.258 45.5796 19.2214 45.5811C19.2214 45.9863 19.2214 46.3914 19.2214 46.7965C19.2213 46.9096 19.2179 47.0228 19.222 47.1358C19.2267 47.2647 19.2016 47.3563 19.0415 47.3545C18.8746 47.3526 18.8712 47.2467 18.8715 47.1256C18.8727 46.4894 18.867 45.8531 18.876 45.217C18.8778 45.0861 18.7837 44.8766 19.0506 44.8723C19.2416 44.8693 19.4337 44.8216 19.522 45.0966C19.6684 45.5526 19.8569 45.9951 20.0302 46.4424C20.0739 46.5551 20.127 46.6642 20.2124 46.858C20.4615 46.2312 20.6947 45.6945 20.8854 45.1432C20.9782 44.875 21.1454 44.8497 21.3714 44.8714C21.6633 44.8995 21.536 45.1264 21.5393 45.2627C21.554 45.8703 21.5463 46.4784 21.5452 47.0864C21.545 47.2085 21.5811 47.3492 21.3767 47.3549C21.1692 47.3607 21.201 47.2203 21.2008 47.0967C21.1999 46.5815 21.2004 46.0663 21.2004 45.5512C21.1623 45.5438 21.1242 45.5364 21.0861 45.529Z" fill="#36626D"/>
<path d="M31.8706 46.4514C31.8705 46.324 31.8601 46.1957 31.8727 46.0696C31.8984 45.8113 31.6969 45.4312 32.3232 45.6153C32.5981 45.6962 32.9987 45.4345 33.3016 45.7748C33.3573 45.8373 33.4126 45.7226 33.4614 45.6824C33.6776 45.5045 33.923 45.4503 34.175 45.5652C34.4415 45.6867 34.4951 45.9424 34.4978 46.2082C34.501 46.5194 34.4955 46.8308 34.5001 47.142C34.502 47.2705 34.4864 47.3569 34.3222 47.3562C34.1487 47.3553 34.1542 47.2517 34.1546 47.1323C34.1555 46.8493 34.1623 46.5659 34.147 46.2836C34.1353 46.0653 34.0868 45.8313 33.8048 45.8352C33.5359 45.8389 33.4051 46.032 33.3883 46.2843C33.3713 46.5379 33.3854 46.7935 33.3765 47.0478C33.3721 47.1736 33.4439 47.347 33.2051 47.3544C32.9392 47.3627 33.0087 47.1711 33.0049 47.03C32.998 46.7755 33.007 46.5205 33.0001 46.266C32.9944 46.0565 32.9465 45.8485 32.691 45.8358C32.4391 45.8232 32.2962 45.9936 32.2737 46.2279C32.2455 46.5225 32.248 46.8205 32.2479 47.1171C32.2479 47.2654 32.2233 47.3621 32.0417 47.3554C31.8789 47.3494 31.8666 47.2564 31.8693 47.1305C31.8741 46.9042 31.8707 46.6778 31.8706 46.4514Z" fill="#36626D"/>
<path d="M29.1382 47.1648C28.5946 47.4357 28.2629 47.4025 28.0118 47.0704C27.7616 46.7396 27.7742 46.0729 28.0394 45.7572C28.2323 45.5275 28.481 45.4762 28.7667 45.5285C28.9538 45.5627 29.1117 45.7976 29.3465 45.5645C29.4358 45.4759 29.5213 45.635 29.5189 45.7628C29.5087 46.2987 29.5317 46.8376 29.4826 47.3698C29.423 48.0145 28.7244 48.3592 28.1403 48.0731C28.0305 48.0193 27.9978 47.9473 28.0226 47.8369C28.062 47.6623 28.1778 47.7659 28.2561 47.7818C28.8842 47.9093 29.0997 47.7698 29.1382 47.1648ZM29.1457 46.3898C29.1266 46.0967 29.0484 45.7978 28.6622 45.8061C28.2732 45.8144 28.2114 46.1336 28.2018 46.4394C28.1905 46.7992 28.4216 47.0931 28.6857 47.058C29.0542 47.0091 29.1404 46.7352 29.1457 46.3898Z" fill="#36626D"/>
<path d="M11.4968 47.3052C11.232 47.4155 11.0606 47.3598 11.0099 47.0914C10.9505 46.7765 10.7611 46.6879 10.4676 46.7278C10.3562 46.7429 10.2391 46.7432 10.1278 46.7277C9.8314 46.6864 9.63274 46.7774 9.57978 47.0933C9.53556 47.3571 9.37512 47.3959 9.11523 47.3171C9.42638 46.5455 9.73715 45.7912 10.032 45.0307C10.0953 44.8674 10.2036 44.8798 10.3314 44.8708C10.4789 44.8604 10.5558 44.9104 10.6113 45.0553C10.8986 45.8051 11.1982 46.5501 11.4968 47.3052ZM10.308 45.234C10.1303 45.6931 10.0007 46.028 9.86255 46.385H10.7484C10.607 46.0155 10.4799 45.6833 10.308 45.234Z" fill="#36626D"/>
<path d="M23.475 46.6813C23.475 46.8088 23.4725 46.9363 23.4756 47.0637C23.4818 47.3251 23.4104 47.4733 23.1414 47.2706C23.0035 47.1667 22.9378 47.3033 22.8429 47.3322C22.4162 47.462 22.0551 47.3154 21.9794 46.9718C21.8985 46.6049 22.1177 46.3374 22.5719 46.2522C22.6412 46.2392 22.715 46.2467 22.7826 46.229C22.8892 46.2012 23.0754 46.3134 23.0879 46.1225C23.1004 45.9308 22.9587 45.813 22.7637 45.8002C22.6523 45.7929 22.5382 45.8121 22.4264 45.8271C22.3407 45.8387 22.2399 45.9683 22.1773 45.8212C22.1215 45.6898 22.2205 45.6181 22.3356 45.5687C22.9137 45.3206 23.4058 45.5989 23.4631 46.2146C23.4775 46.3689 23.4652 46.5257 23.4652 46.6813C23.4685 46.6813 23.4718 46.6813 23.475 46.6813ZM22.8482 46.4777C22.6116 46.5106 22.3399 46.518 22.3324 46.8479C22.3283 47.0314 22.4786 47.116 22.6541 47.107C22.9407 47.0921 23.0817 46.9235 23.1074 46.6447C23.1281 46.4204 22.9647 46.4919 22.8482 46.4777Z" fill="#36626D"/>
<path d="M24.0088 46.4428C24.0088 46.2874 23.996 46.1308 24.0119 45.9771C24.0337 45.7674 23.8788 45.3199 24.3832 45.6742C24.4207 45.7005 24.5444 45.5938 24.6325 45.5608C25.108 45.3821 25.5003 45.6076 25.5458 46.1125C25.5774 46.4628 25.5538 46.8179 25.5608 47.1707C25.5631 47.2891 25.5346 47.3536 25.3993 47.3559C25.2563 47.3584 25.195 47.3106 25.1988 47.1618C25.206 46.8795 25.2063 46.5968 25.1985 46.3146C25.1913 46.0548 25.1162 45.8135 24.8032 45.8207C24.5192 45.8272 24.3825 46.0337 24.3657 46.3018C24.349 46.5691 24.3535 46.838 24.3555 47.1061C24.3564 47.243 24.3577 47.3599 24.1658 47.3556C23.9865 47.3517 24.0098 47.2315 24.0092 47.1206C24.008 46.8946 24.0088 46.6687 24.0088 46.4428Z" fill="#36626D"/>
<path d="M36.8628 46.4222C36.8629 46.1963 36.8635 45.9704 36.8626 45.7445C36.8622 45.6411 36.8942 45.4884 37.004 45.5624C37.2574 45.7329 37.4515 45.5486 37.6706 45.5164C38.05 45.4608 38.3302 45.6279 38.3783 46.0083C38.4275 46.3979 38.4015 46.7967 38.4144 47.1913C38.4188 47.3279 38.3498 47.3557 38.2325 47.3554C38.1109 47.3551 38.0516 47.3136 38.0535 47.1837C38.0578 46.8873 38.0641 46.5903 38.05 46.2945C38.0387 46.057 37.9691 45.8214 37.6775 45.819C37.3931 45.8166 37.2426 46.0108 37.2226 46.2808C37.2019 46.5617 37.209 46.8449 37.209 47.1271C37.2091 47.2484 37.2079 47.3497 37.0413 47.3552C36.8771 47.3605 36.8592 47.2706 36.8615 47.1421C36.8659 46.9022 36.8628 46.6621 36.8628 46.4222Z" fill="#36626D"/>
<path d="M27.4323 46.6731C27.4324 46.8005 27.429 46.928 27.4331 47.0552C27.442 47.3278 27.3836 47.512 27.1048 47.2455C26.9891 47.1349 26.9622 47.2521 26.9109 47.2778C26.6351 47.4157 26.3586 47.4366 26.1104 47.2461C25.9299 47.1075 25.8751 46.9018 25.9515 46.6739C26.0598 46.3506 26.3374 46.2895 26.6215 46.2385C26.663 46.231 26.7085 46.2412 26.7483 46.2298C26.8565 46.199 27.0474 46.3118 27.0612 46.1369C27.0749 45.9617 26.9464 45.8175 26.7448 45.8033C26.6333 45.7955 26.5199 45.8144 26.4073 45.8213C26.3175 45.8267 26.1969 45.9925 26.1469 45.7911C26.1045 45.6205 26.245 45.5856 26.3736 45.5495C27.0458 45.3608 27.4155 45.6333 27.4319 46.3334C27.4345 46.4466 27.4323 46.5599 27.4323 46.6731ZM26.8309 46.4782C26.5899 46.5019 26.322 46.5091 26.2995 46.8354C26.2866 47.0225 26.4333 47.1159 26.6091 47.1085C26.8935 47.0966 27.0379 46.9191 27.0804 46.6504C27.1157 46.4275 26.9501 46.4872 26.8309 46.4782Z" fill="#36626D"/>
<path d="M30.8926 47.4087C30.2717 47.4134 29.9033 47.0231 29.9103 46.4253C29.9166 45.8764 30.2571 45.5042 30.7572 45.5077C31.0102 45.5095 31.2317 45.5868 31.3753 45.8142C31.5017 46.0144 31.5828 46.2486 31.4946 46.4599C31.4079 46.6676 31.1695 46.5313 31.0005 46.5571C30.8896 46.574 30.7715 46.5456 30.6612 46.5642C30.5392 46.5848 30.3422 46.4631 30.3114 46.6737C30.2876 46.8365 30.4191 46.9611 30.5613 47.0403C30.7611 47.1516 30.9722 47.1182 31.182 47.0678C31.2542 47.0504 31.3481 46.9667 31.3805 47.1077C31.4042 47.2106 31.3852 47.3099 31.2572 47.3375C31.1189 47.3673 30.9795 47.3919 30.8926 47.4087ZM30.722 46.3215C30.8518 46.2141 31.1313 46.4685 31.151 46.1576C31.1642 45.9507 31.003 45.7889 30.768 45.7824C30.522 45.7755 30.3322 45.9129 30.327 46.1476C30.3206 46.4383 30.5896 46.2305 30.722 46.3215Z" fill="#36626D"/>
<path d="M35.8381 47.4138C35.4178 47.3902 35.1101 47.2562 34.9587 46.8781C34.7966 46.4732 34.8961 45.9436 35.1784 45.7001C35.5409 45.3873 36.1414 45.4597 36.3648 45.849C36.4726 46.0368 36.5474 46.2635 36.4736 46.4562C36.3911 46.6712 36.1504 46.5332 35.9814 46.5564C35.8427 46.5755 35.6983 46.5507 35.5581 46.5636C35.4584 46.5728 35.3119 46.4942 35.272 46.6519C35.2422 46.7697 35.3257 46.8686 35.4067 46.9476C35.6141 47.15 35.8646 47.1293 36.1221 47.0771C36.1989 47.0615 36.3112 46.9388 36.3499 47.1166C36.3793 47.2514 36.3106 47.3287 36.1737 47.3507C36.0485 47.3708 35.9244 47.3974 35.8381 47.4138ZM35.6692 46.3208C35.8085 46.22 36.0808 46.4588 36.1105 46.1559C36.1325 45.9312 35.9517 45.7935 35.7306 45.7812C35.4832 45.7675 35.2981 45.9278 35.2865 46.1505C35.2709 46.451 35.5488 46.2203 35.6692 46.3208Z" fill="#36626D"/>
<path d="M15.5453 47.4111C14.9575 47.3991 14.6193 47.0645 14.5884 46.5269C14.556 45.9628 14.8423 45.5597 15.3246 45.5119C15.6619 45.4784 15.9395 45.5848 16.098 45.9096C16.3301 46.3855 16.2231 46.5599 15.6992 46.5602C15.5717 46.5603 15.443 46.5494 15.3171 46.5634C15.2012 46.5764 15.0245 46.4864 14.9832 46.6433C14.9419 46.8002 15.0577 46.936 15.1985 47.0218C15.3936 47.1406 15.6022 47.1228 15.8156 47.079C15.8881 47.0641 16.0059 46.9294 16.0342 47.1248C16.0491 47.228 16.0342 47.3234 15.8995 47.3449C15.7601 47.3671 15.6219 47.3966 15.5453 47.4111ZM15.4026 46.3241C15.5435 46.2338 15.7962 46.4285 15.821 46.1842C15.8431 45.9657 15.6823 45.786 15.4266 45.781C15.1808 45.7761 14.9944 45.9218 14.9937 46.1496C14.9926 46.4738 15.2816 46.2093 15.4026 46.3241Z" fill="#36626D"/>
<path d="M12.3781 45.5363C12.4191 45.5398 12.5041 45.5452 12.5885 45.5548C12.7135 45.5691 12.7586 45.6521 12.7423 45.7639C12.7221 45.9027 12.6265 45.8376 12.5487 45.8262C12.4508 45.8119 12.3517 45.799 12.2531 45.799C12.1516 45.799 12.0485 45.8191 12.0218 45.9407C11.9961 46.0569 12.0684 46.1266 12.1596 46.1781C12.295 46.2547 12.4374 46.3198 12.5677 46.404C12.7447 46.5184 12.8546 46.676 12.8227 46.9013C12.7883 47.144 12.6245 47.2692 12.4087 47.3343C12.2009 47.3969 11.9893 47.3802 11.7778 47.3377C11.6601 47.314 11.6018 47.2502 11.6126 47.133C11.6291 46.9535 11.7376 47.043 11.8272 47.06C11.924 47.0784 12.0232 47.0882 12.1218 47.0922C12.2575 47.0977 12.3831 47.0615 12.4299 46.9197C12.4814 46.7637 12.3645 46.6887 12.2531 46.6208C12.1928 46.5841 12.1286 46.5538 12.0661 46.5207C11.8197 46.3906 11.5847 46.2496 11.6538 45.9107C11.7059 45.6552 11.9382 45.5313 12.3781 45.5363Z" fill="#36626D"/>
<path d="M13.5775 47.3827C13.4826 47.3686 13.3716 47.3495 13.2598 47.3361C13.127 47.3202 13.1036 47.2293 13.1163 47.1232C13.1387 46.9349 13.2502 47.0548 13.3315 47.0649C13.4292 47.077 13.5274 47.0902 13.6256 47.0917C13.7627 47.0938 13.8815 47.0503 13.9138 46.8995C13.9416 46.7693 13.8628 46.6892 13.7572 46.6298C13.6222 46.554 13.4844 46.4826 13.3536 46.4001C13.1838 46.2931 13.0997 46.1368 13.1344 45.934C13.1695 45.7283 13.3193 45.6211 13.5023 45.5676C13.6082 45.5367 13.7289 45.5235 13.8368 45.5407C13.9822 45.5639 14.2392 45.4612 14.2245 45.7281C14.207 46.0458 13.9957 45.762 13.8764 45.7922C13.7451 45.8253 13.5664 45.7692 13.5142 45.9329C13.4588 46.1064 13.6278 46.1636 13.749 46.231C13.7859 46.2515 13.8231 46.2715 13.8611 46.29C14.1417 46.4269 14.3961 46.5947 14.3011 46.9612C14.2088 47.3171 13.8946 47.3485 13.5775 47.3827Z" fill="#36626D"/>
<path d="M39.5919 47.3852C39.2877 47.3737 39.1096 47.2464 39.0913 46.9548C39.078 46.7443 39.0881 46.5324 39.0756 46.3218C39.0629 46.1072 39.1838 45.8288 38.7881 45.7946C38.6786 45.7852 38.6632 45.5742 38.8117 45.5694C39.0639 45.5613 39.1189 45.4583 39.0976 45.2389C39.0829 45.0885 39.2084 45.0495 39.3208 45.0395C39.4937 45.024 39.4336 45.171 39.4319 45.2489C39.4279 45.4355 39.432 45.5908 39.6904 45.5538C39.7722 45.5421 39.8627 45.5484 39.8608 45.6768C39.8592 45.7835 39.8097 45.8347 39.7075 45.8215C39.4253 45.785 39.4269 45.9632 39.4347 46.1613C39.443 46.3722 39.4348 46.5838 39.4381 46.795C39.4401 46.9285 39.4719 47.0463 39.6255 47.0866C39.7171 47.1106 39.8772 47.0317 39.8584 47.2306C39.8399 47.427 39.677 47.3573 39.5919 47.3852Z" fill="#36626D"/>
<path d="M17.2201 47.3843C16.9216 47.3798 16.7217 47.2631 16.7054 46.9446C16.6931 46.7056 16.6969 46.4658 16.688 46.2265C16.6812 46.0442 16.7622 45.8196 16.4356 45.8054C16.3199 45.8004 16.3263 45.592 16.3962 45.5908C16.6979 45.5856 16.7107 45.4086 16.7182 45.1835C16.7221 45.0674 16.8484 45.0431 16.947 45.042C17.0794 45.0405 17.0529 45.1565 17.043 45.2258C17.0068 45.4814 17.098 45.5926 17.3634 45.5578C17.4552 45.5457 17.4723 45.6244 17.4685 45.701C17.4654 45.7623 17.4405 45.8216 17.3747 45.8143C16.9303 45.7644 17.0608 46.0889 17.0489 46.3137C17.04 46.4823 17.0443 46.652 17.0509 46.8209C17.0562 46.9577 17.105 47.0724 17.2631 47.0899C17.3679 47.1016 17.5112 47.0554 17.4809 47.2452C17.4555 47.4043 17.3216 47.3719 17.2201 47.3843Z" fill="#36626D"/>
</g>
<defs>
<clipPath id="clip0_217_13">
<rect width="65" height="12.106" fill="white" transform="translate(9 36.0687)"/>
</clipPath>
</defs>
</svg>