<svg xmlns="http://www.w3.org/2000/svg" viewBox="14.94920825958252 42.972251892089844 80.0513916015625 24.39179229736328"><g xmlns="http://www.w3.org/2000/svg" clip-path="url(#clip0_217_14)">
<path d="M31.0161 50.286C31.018 48.8921 30.3506 47.9618 29.0806 47.4636C27.8337 46.9744 26.6864 47.2239 25.8043 48.2046C25.3447 48.7154 25.0744 48.6055 24.5839 48.3027C21.8875 46.638 19.0717 47.1353 17.0151 49.5575C13.9414 53.1774 14.6638 57.6827 16.7997 60.6329C18.128 62.4677 20.0247 63.1697 22.2551 62.9914C23.195 62.9163 24.0079 62.445 24.9528 61.9698C24.9528 62.8929 24.8926 63.7138 24.9652 64.5229C25.124 66.2919 26.4159 67.4263 28.1084 67.3614C29.7895 67.2969 30.9991 66.0516 31.0066 64.2834C31.0264 59.6177 31.0098 54.9518 31.0161 50.286ZM22.3698 52.6689C22.7633 52.6898 23.0042 52.9171 22.9767 53.3376C22.9502 53.7413 22.7115 53.9856 22.3135 53.9582C21.9356 53.9321 21.6938 53.6961 21.6793 53.2762C21.7539 52.9023 21.9657 52.6476 22.3698 52.6689ZM22.3506 57.882C21.9408 57.8893 21.6997 57.6557 21.6907 57.258C21.6816 56.8579 21.9359 56.6452 22.3314 56.5803C22.7032 56.6388 22.9721 56.8129 22.976 57.2313C22.9799 57.64 22.7621 57.8746 22.3506 57.882ZM24.1074 55.9398C23.4688 55.9281 22.8298 55.9369 22.191 55.9369C21.5255 55.9368 20.86 55.933 20.1946 55.9381C19.7279 55.9415 19.3998 55.768 19.4102 55.2579C19.4197 54.7909 19.7305 54.6309 20.1641 54.6324C21.495 54.6367 22.826 54.6391 24.1569 54.6309C24.6269 54.628 24.9638 54.7994 24.9442 55.3015C24.9247 55.7987 24.5664 55.9482 24.1074 55.9398Z" fill="#36626D"></path>
<path d="M61.668 47.4989C60.4344 46.981 59.2144 47.1436 58.305 48.1738C57.8229 48.7198 57.5283 48.6019 57.0236 48.2814C54.6883 46.7986 51.9894 47.0876 49.9968 49.0003C47.9159 50.9978 47.2811 53.5003 47.5174 56.2816C47.6199 57.4873 48.0076 58.6176 48.6244 59.6656C50.6028 63.0274 53.6884 63.8941 57.1299 62.0286C57.5892 61.7797 57.8847 61.6684 58.3268 62.1417C59.2318 63.1102 60.3911 63.3323 61.6178 62.8136C62.8701 62.284 63.4885 61.2948 63.4864 59.9263C63.484 58.3276 63.4859 56.729 63.4859 55.1304C63.4859 53.5317 63.4825 51.9331 63.4869 50.3345C63.4905 48.9951 62.8827 48.0089 61.668 47.4989ZM56.4541 55.9393C55.1493 55.9324 53.8444 55.9319 52.5397 55.9396C52.0818 55.9424 51.7247 55.8024 51.7093 55.2961C51.6918 54.7208 52.0926 54.6198 52.5724 54.6301C53.2112 54.6438 53.8505 54.6335 54.4896 54.6335C55.1553 54.6339 55.821 54.6362 56.4867 54.633C56.916 54.631 57.2341 54.7838 57.2385 55.2579C57.2431 55.7638 56.9269 55.9418 56.4541 55.9393Z" fill="#36626D"></path>
<path d="M78.2842 48.3701C75.9734 46.8985 73.6653 47.0075 71.3553 48.3291C71.0266 48.5172 70.8357 48.5589 70.5637 48.2555C69.617 47.1995 68.4405 46.9898 67.1503 47.4777C65.8447 47.9714 65.2789 49.0433 65.262 50.3565C65.2208 53.553 65.2064 56.7514 65.2693 59.9473C65.3085 61.9359 66.4487 62.9969 68.4685 63.0589C69.9053 63.103 71.3444 63.0674 72.7825 63.068C74.1675 63.0686 75.5525 63.0687 76.9375 63.0683C77.0173 63.0683 77.0973 63.0659 77.1771 63.0614C79.2069 62.9473 80.3294 61.8653 80.3682 59.8331C80.418 57.2232 80.396 54.6116 80.3752 52.0009C80.3625 50.4119 79.6269 49.2251 78.2842 48.3701ZM75.6522 57.7354C75.2598 58.1676 74.8819 57.9437 74.566 57.6039C74.168 57.1758 73.7698 56.7443 73.4136 56.282C73.1704 55.9662 73.009 55.9503 72.759 56.2641C72.3622 56.7622 71.9486 57.2487 71.5135 57.7133C71.3382 57.9004 71.1004 58.0542 70.8023 57.9096C70.5808 57.8022 70.5041 57.6224 70.5129 57.254C70.5416 56.6864 71.0967 56.3522 71.5506 55.9611C72.3417 55.2796 72.3529 55.289 71.6196 54.587C71.2934 54.2746 70.9493 53.9804 70.6319 53.6596C70.4005 53.4257 70.1979 53.1489 70.4723 52.8227C70.7193 52.529 71.0356 52.5815 71.3477 52.7192C71.8559 52.9433 72.1965 53.3672 72.5027 53.7925C72.9171 54.3679 73.227 54.4146 73.6592 53.8047C73.9309 53.4212 74.3 53.0888 74.679 52.8051C74.9812 52.5789 75.4033 52.4679 75.697 52.8108C76.0143 53.1812 75.7494 53.4998 75.4652 53.7694C75.0604 54.1534 74.6723 54.5589 74.2388 54.9076C73.8521 55.2187 73.9081 55.4055 74.2835 55.6716C74.6933 55.962 75.0611 56.313 75.4379 56.6482C75.78 56.9526 76.0384 57.3101 75.6522 57.7354Z" fill="#36626D"></path>
<path d="M46.0239 49.695C45.9487 48.3775 44.6807 47.3147 43.2117 47.255C41.6349 47.191 40.4809 48.029 40.2283 49.4229C40.004 50.6606 40.0248 51.9162 39.9591 53.1652C39.9382 53.5641 39.8346 54.0069 39.9668 54.3542C40.1674 54.8807 40.7043 54.4375 41.0795 54.566C41.4708 54.7001 41.9315 54.8653 41.9735 55.2421C42.0044 55.52 41.5553 55.8816 41.2258 55.8488C40.1511 55.7419 39.8066 56.1921 39.9428 57.2102C39.9894 57.558 39.6659 57.8569 39.3723 57.8887C39.0997 57.9183 38.7674 57.5785 38.7941 57.3183C38.9326 55.9676 38.1617 55.7515 37.0825 55.818C36.87 55.831 36.6784 55.6705 36.6368 55.4287C36.5958 55.1907 36.7348 55.0226 36.9086 54.8887C37.288 54.5964 37.7252 54.5049 38.1905 54.5736C38.5219 54.6226 38.6745 54.5458 38.668 54.1686C38.644 52.7567 38.7108 51.3402 38.6222 49.9331C38.5201 48.3128 37.1717 47.2067 35.5188 47.2535C33.9087 47.299 32.6387 48.455 32.5935 50.0452C32.5238 52.495 32.4527 54.9506 32.7393 57.3928C33.0087 59.6884 34.0708 61.4656 36.2444 62.4502C37.2295 62.8964 38.2833 63.0405 39.3533 63.0836C42.834 63.2239 45.3524 61.1787 45.8922 57.7501C46.154 56.0875 46.1823 54.4088 46.0353 52.729C46.0353 51.7174 46.0815 50.7032 46.0239 49.695Z" fill="#36626D"></path>
<path d="M94.9844 50.227C94.833 48.6296 93.9169 47.4567 92.5086 47.3292C91.5745 47.2447 91.2602 46.9867 91.28 45.9909C91.3113 44.4081 90.0933 43.1603 88.6183 42.9932C87.1129 42.8228 85.8158 43.7036 85.3508 45.2122C84.8305 46.8999 84.8372 46.9147 83.1706 47.68C81.9867 48.2237 81.463 49.1566 81.4768 50.4143C81.4907 51.6756 82.1483 52.5123 83.299 52.9671C83.7173 53.1324 84.1523 53.3121 84.5918 53.3523C85.1417 53.4025 85.2258 53.6632 85.2116 54.1361C85.1821 55.1216 85.2027 56.1087 85.2029 57.0951C85.2031 58.0016 85.1898 58.9083 85.2058 59.8145C85.2405 61.7741 86.4665 63.0402 88.3062 63.0355C90.056 63.031 91.2895 61.7231 91.3195 59.8053C91.3432 58.2861 91.3288 56.7664 91.3411 55.2469C91.3457 54.6899 91.2197 54.0547 91.4447 53.5991C91.6522 53.1789 92.3708 53.3636 92.8284 53.1586C92.9012 53.1261 92.9775 53.1011 93.0525 53.0738C94.4615 52.561 95.1144 51.599 94.9844 50.227ZM88.0674 58.047C87.6562 58.0315 87.4458 57.7846 87.4536 57.3797C87.4618 56.9559 87.7624 56.8147 88.0542 56.7309C88.5151 56.8094 88.7551 57.0424 88.7412 57.4344C88.727 57.8304 88.4755 58.0625 88.0674 58.047ZM88.1079 56.0819C87.6061 56.0925 87.4396 55.7404 87.4432 55.2798C87.4485 54.5873 87.4446 53.8947 87.4446 53.2021C87.4448 52.5628 87.4507 51.9234 87.4428 51.2842C87.4374 50.8393 87.65 50.5502 88.082 50.5306C88.5371 50.5099 88.7445 50.8242 88.7468 51.2545C88.754 52.613 88.7473 53.9715 88.7513 55.33C88.7526 55.7729 88.5458 56.0726 88.1079 56.0819Z" fill="#36626D"></path>
</g></svg>